<svg width="800" height="800" viewBox="0 0 800 800" fill="none" xmlns="http://www.w3.org/2000/svg">
<path fill-rule="evenodd" clip-rule="evenodd" d="M166.163 66.6666C120.515 66.6666 86.739 106.619 88.251 149.948C89.7017 191.575 87.817 245.487 74.244 289.453C60.6307 333.547 37.6067 361.48 0 365.067V405.553C37.6067 409.14 60.6307 437.073 74.244 481.17C87.817 525.133 89.7017 579.047 88.251 620.673C86.739 663.997 120.515 703.953 166.169 703.953H633.897C679.547 703.953 713.317 664.003 711.803 620.673C710.353 579.047 712.237 525.133 725.81 481.17C739.43 437.073 762.393 409.14 800 405.553V365.067C762.393 361.48 739.43 333.547 725.81 289.453C712.237 245.494 710.353 191.575 711.803 149.948C713.317 106.626 679.547 66.6666 633.897 66.6666H166.163ZM542.373 458.957C542.373 518.62 497.87 554.803 424.02 554.803H298.305C294.709 554.803 291.26 553.373 288.717 550.83C286.174 548.287 284.746 544.84 284.746 541.243V229.379C284.746 225.782 286.174 222.334 288.717 219.791C291.26 217.248 294.709 215.819 298.305 215.819H423.303C484.88 215.819 525.293 249.175 525.293 300.389C525.293 336.333 498.11 368.517 463.47 374.15V376.03C510.623 381.203 542.373 413.853 542.373 458.957ZM410.313 258.802H338.63V360.05H399.003C445.673 360.05 471.41 341.257 471.41 307.663C471.41 276.185 449.28 258.802 410.313 258.802ZM338.63 400.227V511.807H412.95C461.54 511.807 487.28 492.307 487.28 455.663C487.28 419.013 460.82 400.22 409.823 400.22L338.63 400.227Z" fill="#383A43"/>
</svg>
