<svg width="21" height="21" viewBox="0 0 21 21" fill="none" xmlns="http://www.w3.org/2000/svg">
<g clip-path="url(#clip0_52_101)">
<path fill-rule="evenodd" clip-rule="evenodd" d="M10.3335 0.284302C4.81055 0.284302 0.333496 4.76153 0.333496 10.2841C0.333496 15.8071 4.81055 20.2843 10.3335 20.2843C15.8561 20.2843 20.3335 15.8071 20.3335 10.2841C20.3335 4.76153 15.8561 0.284302 10.3335 0.284302ZM10.4503 16.133C7.22707 16.133 4.61635 13.5156 4.61635 10.2842C4.61635 7.05289 7.22707 4.43556 10.4503 4.43556C12.0256 4.43556 13.3416 5.01674 14.3518 5.95989L12.7071 7.60853V7.60481C12.0947 7.0199 11.3181 6.72024 10.4503 6.72024C8.52516 6.72024 6.96097 8.35051 6.96097 10.2807C6.96097 12.2105 8.52521 13.8447 10.4503 13.8447C12.1969 13.8447 13.3854 12.8431 13.63 11.4687H10.4503V9.18763H15.9377C16.0107 9.57864 16.0506 9.98813 16.0506 10.4158C16.0506 13.757 13.8194 16.133 10.4503 16.133Z" fill="#383A43"/>
</g>
<defs>
<clipPath id="clip0_52_101">
<rect width="20" height="20" fill="white" transform="translate(0.333496 0.284302)"/>
</clipPath>
</defs>
</svg>
