<svg width="256" height="404" viewBox="0 0 256 404" fill="none" xmlns="http://www.w3.org/2000/svg">
<g clip-path="url(#clip0_165_22)">
<path d="M66.406 280.753H189.594C223.611 280.753 251.188 308.33 251.188 342.347C251.188 376.364 223.611 403.941 189.594 403.941H66.406C32.3886 403.941 4.81201 376.364 4.81201 342.347C4.81201 308.33 32.3886 280.753 66.406 280.753Z" fill="#383A43"/>
<path d="M128 251.188C196.035 251.188 251.188 196.035 251.188 128C251.188 59.9656 196.035 4.8125 128 4.8125C59.9651 4.8125 4.81201 59.9656 4.81201 128C4.81201 196.035 59.9651 251.188 128 251.188Z" fill="#383A43"/>
<path d="M128 183.188C158.48 183.188 183.188 158.479 183.188 128C183.188 97.5201 158.48 72.8115 128 72.8115C97.5204 72.8115 72.8118 97.5201 72.8118 128C72.8118 158.479 97.5204 183.188 128 183.188Z" fill="white"/>
</g>
<defs>
<clipPath id="clip0_165_22">
<rect width="256" height="404" fill="white"/>
</clipPath>
</defs>
</svg>
