<svg width="800" height="771" viewBox="0 0 800 771" fill="none" xmlns="http://www.w3.org/2000/svg">
<path d="M404.893 36.4526C403.426 37.6758 398.288 39.8776 393.395 41.3455C384.343 44.2813 322.202 75.5963 283.793 96.3914C272.294 102.752 259.083 109.602 254.435 112.049C249.786 114.251 245.383 116.697 244.649 117.431C243.915 118.165 240.245 120.367 236.086 122.324C232.172 124.281 227.279 127.462 225.566 128.93C223.854 130.642 221.163 132.11 219.939 132.11C218.716 132.11 196.942 143.853 171.744 158.287C140.429 176.147 122.569 187.89 114.985 195.719C100.306 211.131 99.083 212.844 95.1687 224.098C93.4561 229.235 91.0096 234.618 90.031 235.841C87.3399 239.266 87.5846 529.908 90.2757 535.29C91.4989 537.492 93.9454 543.364 95.658 548.012C99.817 558.777 125.505 584.709 138.227 590.581C143.609 593.027 150.704 597.187 154.129 599.388C157.554 601.835 164.159 605.994 168.808 608.685C254.924 658.104 295.78 681.101 299.695 682.813C302.386 684.037 308.991 687.706 314.374 691.131C319.756 694.312 341.285 705.321 362.08 715.596C382.875 725.872 401.958 735.168 404.159 736.636C406.606 737.859 410.276 738.838 412.233 738.838C414.19 738.838 417.86 737.859 420.306 736.636C422.508 735.168 441.591 725.872 462.386 715.596C483.181 705.321 504.71 694.312 510.092 691.131C515.474 687.951 528.196 681.101 538.227 675.963C548.257 670.826 557.065 665.933 557.799 665.199C558.777 664.22 591.315 645.382 655.658 608.685C660.306 605.994 666.912 601.835 670.337 599.388C673.762 597.187 680.857 593.027 686.239 590.581C698.961 584.709 724.649 558.777 728.808 548.012C730.52 543.364 732.967 537.492 734.19 535.29C736.881 529.908 737.126 239.266 734.435 235.841C733.456 234.618 731.01 229.235 729.297 224.098C725.383 212.844 724.16 211.131 709.481 195.719C701.897 187.89 684.037 176.147 652.722 158.287C627.523 143.853 605.75 132.11 604.526 132.11C603.303 132.11 600.612 130.642 598.9 128.93C597.187 127.462 592.539 124.281 588.38 122.324C584.465 120.367 580.551 118.165 579.817 117.431C579.083 116.697 574.679 114.251 570.031 112.049C565.383 109.602 552.172 102.752 540.673 96.3914C502.263 75.5963 440.123 44.2813 431.071 41.3455C426.178 39.8776 421.04 37.6758 419.817 36.4526C418.349 35.2293 415.169 34.2507 412.233 34.2507C409.297 34.2507 406.117 35.2293 404.893 36.4526ZM456.27 90.7645C497.37 111.07 525.75 126.238 560.245 145.566C574.435 153.639 589.848 162.202 594.496 164.404C599.144 166.85 604.771 169.786 606.728 171.009C608.686 172.477 620.918 179.327 633.64 186.177C672.783 207.706 688.196 218.716 694.312 229.48L699.695 239.266V386.3V533.333L689.909 544.098C681.346 553.15 666.912 563.425 639.756 578.838C637.065 580.306 630.215 584.22 624.832 587.401C619.205 590.581 595.964 604.037 572.967 617.248C549.97 630.214 530.153 640.979 528.685 640.979C527.218 640.979 525.994 641.957 525.994 642.936C525.994 644.159 517.921 649.052 508.38 654.19C498.594 659.083 476.331 670.826 458.716 680.122C409.297 706.3 416.881 705.81 373.334 683.792C318.043 655.413 299.695 645.627 298.961 643.18C298.471 641.957 297.004 640.979 295.536 640.979C294.312 640.979 274.496 630.214 251.499 617.248C228.502 604.037 205.26 590.581 199.633 587.401C194.251 584.22 187.401 580.306 184.71 578.838C157.554 563.425 143.12 553.15 134.557 544.098L124.771 533.333V386.3V239.266L130.153 229.48C136.27 218.716 151.682 207.706 190.826 186.177C203.548 179.327 215.78 172.477 217.737 171.254C219.695 169.786 226.3 166.361 232.416 163.18C238.533 160 252.722 152.171 263.976 145.81C300.918 124.771 389.725 78.7767 402.692 73.8838C412.967 69.9694 418.104 71.6819 456.27 90.7645Z" fill="#383A43"/>
<path d="M300.184 368.685C299.206 369.419 298.472 383.609 298.472 400C298.472 435.963 298.716 436.453 322.203 434.985C347.157 433.762 359.634 422.263 359.634 400.734C359.634 378.716 344.955 366.973 317.554 366.973C308.747 366.973 300.918 367.707 300.184 368.685ZM336.881 385.566C343.487 390.703 344.955 393.395 344.955 401.223C344.955 409.297 343.487 411.743 336.637 417.126C330.521 421.774 325.872 423.242 320.001 422.752L311.927 422.018L311.193 403.915C310.704 393.884 310.949 384.343 311.683 382.385C313.885 377.003 327.829 378.716 336.881 385.566Z" fill="#383A43"/>
<path d="M388.012 371.865C383.853 374.312 379.205 378.96 377.493 382.141C373.823 388.991 373.334 411.254 376.759 418.838C383.853 434.251 410.765 440.612 427.401 430.336C435.963 424.954 445.26 410.031 445.26 401.223C445.26 394.128 436.942 378.96 430.092 373.089C421.774 366.239 397.554 365.505 388.012 371.865ZM418.349 382.875C431.071 389.48 431.071 411.498 418.593 419.083C409.052 424.709 405.382 424.22 396.575 416.881C386.545 408.318 386.055 395.107 395.352 385.566C402.691 378.226 408.318 377.737 418.349 382.875Z" fill="#383A43"/>
<path d="M459.205 368.44C458.227 369.419 457.493 384.831 457.493 402.935V435.474H463.609C469.725 435.474 469.725 435.229 469.725 415.902C469.725 405.137 470.459 396.33 471.682 396.33C472.661 396.33 476.331 401.468 480 407.339C488.318 421.039 493.701 421.284 501.529 408.807L507.646 399.266L508.869 415.412C510.337 433.027 514.74 439.143 522.08 433.272C525.26 430.581 525.994 424.464 525.994 401.223C525.994 377.981 525.26 371.865 522.08 369.174C519.389 366.972 517.187 366.727 514.251 368.44C510.581 370.886 496.147 390.214 493.211 396.819C491.743 400.244 491.009 399.51 478.288 379.694C471.438 368.929 463.364 364.281 459.205 368.44Z" fill="#383A43"/>
<path d="M240.23 232.89C235.52 237.601 235.52 537.39 240.23 542.1C244.94 546.81 580.748 546.81 585.458 542.1C590.168 537.39 590.168 237.601 585.458 232.89C580.748 228.18 244.94 228.18 240.23 232.89ZM441.936 262.814V271.126H351.889H261.841V262.814V254.502H351.889H441.936V262.814ZM563.847 262.814V271.126H515.36H466.873V262.814V254.502H515.36H563.847V262.814ZM563.847 406.89V520.488H412.844H261.841V406.89V293.291H412.844H563.847V406.89Z" fill="#383A43"/>
</svg>
