<svg width="20" height="21" viewBox="0 0 20 21" fill="none" xmlns="http://www.w3.org/2000/svg">
<path d="M7.08337 1.70581C5.70267 1.70581 4.58337 2.8251 4.58337 4.20581C4.58337 5.58652 5.70267 6.70581 7.08337 6.70581H12.9167C14.2975 6.70581 15.4167 5.58652 15.4167 4.20581C15.4167 2.8251 14.2975 1.70581 12.9167 1.70581H7.08337Z" fill="#2B2C2E"/>
<path d="M12.9166 7.53918C11.5359 7.53918 10.4166 8.65843 10.4166 10.0392C10.4166 11.4199 11.5359 12.5392 12.9166 12.5392C14.2974 12.5392 15.4166 11.4199 15.4166 10.0392C15.4166 8.65843 14.2974 7.53918 12.9166 7.53918Z" fill="#2B2C2E"/>
<path d="M4.58337 10.0392C4.58337 8.65843 5.70267 7.53918 7.08337 7.53918H9.58337V12.5392H7.08337C5.70267 12.5392 4.58337 11.4199 4.58337 10.0392Z" fill="#2B2C2E"/>
<path d="M7.08337 13.3726C5.70267 13.3726 4.58337 14.4918 4.58337 15.8726C4.58337 17.2533 5.70267 18.3726 7.08337 18.3726C8.46412 18.3726 9.58337 17.2533 9.58337 15.8726V13.3726H7.08337Z" fill="#2B2C2E"/>
</svg>
