<svg width="20" height="21" viewBox="0 0 20 21" fill="none" xmlns="http://www.w3.org/2000/svg">
<g clip-path="url(#clip0_28_365)">
<path d="M10 0.872539C7.59459 0.848096 5.27786 1.77971 3.55898 3.46264C1.84011 5.14557 0.859758 7.44211 0.833374 9.84754C0.842643 11.7485 1.45416 13.5976 2.58009 15.1293C3.70603 16.661 5.28844 17.7964 7.10004 18.3725C7.55837 18.4559 7.72504 18.1809 7.72504 17.9392C7.72504 17.6975 7.72504 17.1642 7.72504 16.4142C5.17504 16.9559 4.63337 15.2142 4.63337 15.2142C4.46362 14.6675 4.10273 14.2001 3.61671 13.8975C2.78337 13.3475 3.68337 13.3559 3.68337 13.3559C3.97142 13.3944 4.247 13.4976 4.48947 13.6578C4.73193 13.818 4.93497 14.031 5.08337 14.2809C5.34198 14.7293 5.76632 15.0583 6.26505 15.197C6.76378 15.3357 7.29704 15.2731 7.75004 15.0225C7.79663 14.5662 8.00328 14.1411 8.33337 13.8225C6.30004 13.5975 4.16671 12.8309 4.16671 9.38921C4.14852 8.49144 4.48024 7.6218 5.09171 6.96421C4.81323 6.19343 4.84611 5.34447 5.18337 4.59754C5.18337 4.59754 5.95837 4.35587 7.68337 5.51421C9.18495 5.11407 10.7651 5.11407 12.2667 5.51421C14.0167 4.35587 14.7667 4.59754 14.7667 4.59754C15.104 5.34447 15.1369 6.19343 14.8584 6.96421C15.484 7.60975 15.8337 8.47355 15.8334 9.37254C15.8334 12.8225 13.6834 13.5809 11.6667 13.8059C11.8875 14.0203 12.0581 14.2809 12.1662 14.5691C12.2742 14.8573 12.3171 15.1658 12.2917 15.4725V17.9309C12.2917 17.9309 12.4584 18.4559 12.9167 18.3642C14.7232 17.7845 16.3003 16.6488 17.4227 15.1193C18.5452 13.5898 19.1555 11.7447 19.1667 9.84754C19.1403 7.44211 18.16 5.14557 16.4411 3.46264C14.7222 1.77971 12.4055 0.848096 10 0.872539Z" fill="#383A43"/>
</g>
<defs>
<clipPath id="clip0_28_365">
<rect width="20" height="20" fill="white" transform="translate(0 0.0391846)"/>
</clipPath>
</defs>
</svg>
