<svg width="1333" height="490" viewBox="0 0 1333 490" fill="none" xmlns="http://www.w3.org/2000/svg">
<path d="M520.348 0.937556C468.587 7.91969 426.045 36.2435 405.498 77.2141C394.303 99.6096 390.615 115.945 390.615 142.425C390.615 192.88 408.132 227.923 458.972 279.696C487.948 309.074 497.562 321.852 503.094 338.451C506.782 349.254 506.255 367.566 502.04 375.602C496.509 386.141 489.133 390.752 477.806 390.752C460.421 390.752 451.728 378.236 451.596 353.074C451.596 338.451 455.679 339.374 395.357 339.374C333.059 339.374 338.854 337.002 339.117 361.637C339.644 405.77 352.156 437.782 377.839 459.783C399.176 478.094 426.835 487.448 464.899 489.16C503.489 490.873 537.338 482.31 564.865 463.866C576.587 455.83 592.919 438.836 600.69 426.321C629.007 380.739 629.402 311.577 601.612 265.337C590.812 247.288 581.197 235.827 554.329 208.294C526.933 180.234 518.636 169.958 511.787 155.335C507.967 147.035 507.572 145.323 507.572 132.544C507.572 118.317 508.626 114.628 514.421 108.041C522.982 98.2923 542.607 95.6575 553.275 102.64C560.124 107.119 564.997 118.317 565.787 131.49C566.578 141.107 566.973 142.82 570.265 145.982L573.821 149.67H623.344C671.154 149.67 672.998 149.539 675.5 147.035C678.398 144.137 678.661 141.502 678.266 124.64C676.949 76.1602 658.115 38.7465 624.793 18.5905C614.256 12.2671 598.319 6.33883 583.963 3.30885C569.87 0.278864 534.704 -1.03852 520.348 0.937556Z" fill="#383A43"/>
<path d="M203.326 2.12295C180.935 4.75772 154.33 13.4525 134.838 24.5185C62.6614 65.8844 11.6902 166.269 1.28528 287.337C-6.61722 378.5 22.2269 447.926 79.3883 475.723C96.1153 483.89 109.681 486.92 132.862 487.843C233.75 491.926 294.073 443.842 331.083 330.152C333.849 321.852 336.483 314.475 337.142 313.816C337.668 313.157 344.122 312.499 351.498 312.499C363.088 312.235 365.064 311.972 367.566 309.469C369.805 307.229 372.308 298.007 379.42 267.971C384.293 246.761 388.376 228.318 388.376 227C388.376 225.815 387.191 223.575 385.742 222.126C383.108 219.491 381.396 219.491 295.785 219.491C211.228 219.491 208.331 219.623 205.697 221.994C203.853 223.839 201.877 229.24 199.506 239.516C183.438 309.6 184.228 305.517 186.336 308.678C188.443 312.103 188.838 312.103 202.667 311.84C208.067 311.708 215.048 311.972 218.209 312.367C224.926 313.289 225.058 314.607 220.448 327.122C208.331 359.398 183.043 381.134 156.965 381.925C135.496 382.584 122.589 370.991 115.476 344.906C112.974 335.948 112.579 331.074 112.579 305.121C112.579 279.959 112.974 272.977 115.608 258.618C121.535 225.024 131.808 193.934 146.955 163.503C164.999 127.538 183.57 109.885 205.17 107.909C224.268 106.196 235.858 117.658 240.336 143.083C241.258 148.484 242.048 155.73 242.18 159.155C242.18 169.694 240.336 169.431 299.868 169.431H351.629L355.054 166.006C358.478 162.58 358.478 162.449 357.556 148.616C354.922 106.196 347.81 79.1899 333.059 55.0818C316.99 29.1293 291.966 11.6081 261.146 4.75772C247.316 1.72773 218.736 0.410349 203.326 2.12295Z" fill="#383A43"/>
<path d="M808.262 10.9494C807.077 12.2668 759.267 116.735 701.842 243.204C614.783 435.279 597.792 473.615 598.714 476.381C600.953 482.836 602.402 482.968 659.3 482.705C710.403 482.31 712.379 482.178 714.881 479.675C716.33 478.226 722.257 465.447 728.052 451.351C733.979 437.255 739.774 424.872 740.959 423.949C742.672 422.764 755.447 422.369 794.169 422.369C839.214 422.369 845.404 422.632 847.38 424.476C848.433 425.662 849.224 427.638 848.828 428.824C848.565 430.009 847.906 441.339 847.38 454.117L846.458 477.303L850.146 480.202C853.702 483.1 854.097 483.1 906.648 482.705C947.083 482.441 960.122 481.914 961.571 480.597C963.415 479.148 963.678 452.932 964.6 249.132C965.127 122.795 965.259 17.9315 964.732 16.0872C962.756 8.31462 966.576 8.70983 885.048 8.70983C815.506 8.70983 810.106 8.84157 808.262 10.9494ZM857.916 203.683C852.78 315.265 852.516 318.295 850.804 320.008C848.96 321.852 786.267 321.457 784.291 319.613C783.633 318.822 798.121 281.277 819.589 228.054C861.341 124.64 858.707 130.831 860.024 132.149C860.682 132.807 859.629 164.952 857.916 203.683Z" fill="#383A43"/>
<path d="M1084.72 10.9493C1082.08 13.9793 976.849 469.531 977.376 475.723C978.034 482.836 979.351 482.968 1034.67 482.705C1077.34 482.31 1085.38 482.046 1086.96 480.333C1089.33 477.962 1101.31 425.267 1100.65 419.997C1100.26 416.836 1097.76 415.123 1075.89 403.662C1041.25 385.614 1040.46 386.272 1096.31 385.35C1143.59 384.56 1147.81 384.033 1174.15 376.919C1261.08 353.206 1320.21 281.013 1331.54 184.844C1333.52 168.113 1332.33 127.143 1329.56 114.759C1322.45 82.3516 1308.62 58.6387 1287.42 41.5127C1276.88 33.0814 1253.44 21.4884 1238.55 17.2728C1212.74 10.1589 1208.39 9.7637 1145.7 9.10501C1089.46 8.57805 1086.96 8.57805 1084.72 10.9493ZM1195.09 111.598C1203.12 113.837 1211.82 123.586 1215.64 134.652C1218.4 142.688 1218.8 145.981 1218.67 163.502C1218.27 225.815 1188.9 273.899 1147.41 280.223C1142.14 281.013 1137.01 281.145 1136.08 280.486C1134.5 279.564 1136.87 267.839 1149.26 213.563C1157.42 177.335 1164.01 146.245 1163.87 144.532C1163.48 141.897 1159.4 139.263 1139.51 128.724C1126.21 121.61 1115.14 115.55 1114.62 115.023C1114.09 114.628 1114.09 113.31 1114.48 112.124C1115.27 110.412 1120.15 110.148 1152.55 110.148C1175.47 110.148 1191.8 110.675 1195.09 111.598Z" fill="#383A43"/>
</svg>
