<svg width="800" height="800" viewBox="0 0 800 800" fill="none" xmlns="http://www.w3.org/2000/svg">
<path d="M641.792 255.468C576.268 258.516 569.411 265.373 601.411 295.849C614.364 308.04 620.459 321.754 620.459 338.516C620.459 352.23 623.507 365.183 627.316 368.23C634.173 372.04 693.602 314.135 717.221 280.611C728.649 264.611 724.84 249.373 709.602 251.659C704.268 252.421 673.792 254.706 641.792 255.468Z" fill="#383A43"/>
<path d="M180.079 320.232C176.269 325.565 170.936 358.327 170.174 391.851C166.364 462.708 155.698 481.756 113.793 489.375C61.2214 499.279 73.4119 551.851 126.745 544.994C163.317 540.422 196.079 516.041 212.079 483.279C227.317 452.041 229.602 334.708 215.126 320.232C203.698 308.803 189.983 308.803 180.079 320.232Z" fill="#383A43"/>
<path d="M311.127 325.562C204.461 375.086 239.508 547.276 356.08 547.276C389.604 547.276 434.556 528.991 440.651 512.229C452.08 481.753 421.604 464.991 385.794 483.276C369.032 490.895 357.604 492.419 349.223 487.848C338.556 481.753 349.223 474.134 401.794 449.753C474.175 416.229 480.27 406.324 455.889 364.419C428.461 319.467 362.937 301.181 311.127 325.562ZM391.127 378.895C402.556 386.514 401.794 387.276 344.651 412.419C308.842 428.419 300.461 429.943 300.461 420.8C300.461 388.038 361.413 359.848 391.127 378.895Z" fill="#383A43"/>
<path d="M500.078 320.233C493.982 326.328 490.935 355.281 490.935 399.471C490.935 458.9 493.221 472.614 508.459 493.947C538.173 538.138 605.982 562.519 628.078 535.852C643.316 517.566 630.363 494.709 600.649 489.376C557.221 481.757 523.697 425.376 562.554 425.376C602.935 425.376 609.792 378.9 570.935 372.043C553.411 368.995 547.316 363.662 545.792 349.186C540.459 314.9 519.125 301.186 500.078 320.233Z" fill="#383A43"/>
</svg>
