<svg width="800" height="800" viewBox="0 0 800 800" fill="none" xmlns="http://www.w3.org/2000/svg">
<path d="M779.939 569.734C779.939 569.734 680.636 837.525 338.761 775.184C333.381 774.183 328.222 772.313 322.997 770.733C321.775 770.375 320.541 769.984 319.319 769.634C314.186 768.038 309.105 766.4 304.055 764.639C303.477 764.438 302.925 764.249 302.339 764.041C297.739 762.424 293.164 760.706 288.649 758.972C287.466 758.511 286.289 758.063 285.113 757.581C280.247 755.659 275.406 753.65 270.617 751.552C269.735 751.163 268.883 750.772 267.986 750.377C263.794 748.513 259.655 746.581 255.55 744.619C254.485 744.078 253.413 743.578 252.339 743.072C251.755 742.78 251.125 742.488 250.527 742.189C247.877 740.864 245.289 739.488 242.678 738.12C240.664 737.081 238.617 736.069 236.616 734.995C232.919 732.981 229.274 730.934 225.647 728.842C224.302 728.075 222.944 727.334 221.611 726.561C216.686 723.664 211.813 720.655 207.011 717.613C205.653 716.742 204.31 715.82 202.97 714.922C199.839 712.895 196.706 710.867 193.639 708.75C193.314 708.528 193.003 708.295 192.685 708.067C191.495 707.261 190.366 706.436 189.183 705.578C185.947 703.33 182.744 701.03 179.574 698.691C178.041 697.534 176.513 696.372 174.992 695.208C172.12 693.017 169.263 690.775 166.428 688.514C165.019 687.384 163.589 686.267 162.18 685.124C158.724 682.277 155.278 679.378 151.906 676.455C151.269 675.897 150.594 675.35 149.944 674.766C149.878 674.739 149.833 674.688 149.761 674.628C145.935 671.275 142.178 667.838 138.455 664.33C137.331 663.303 136.213 662.205 135.083 661.127C132.302 658.455 129.547 655.764 126.838 653.036C125.713 651.931 124.602 650.814 123.524 649.695C120.022 646.095 116.564 642.491 113.186 638.805C113.063 638.638 112.939 638.539 112.791 638.377C112.731 638.313 112.647 638.227 112.589 638.155C109.133 634.347 105.741 630.455 102.42 626.55C101.491 625.452 100.556 624.328 99.6392 623.217C97.1642 620.234 94.7267 617.259 92.3361 614.244C91.3423 612.989 90.3486 611.724 89.3673 610.463C86.6845 606.999 84.033 603.509 81.4658 599.961C80.9845 599.299 80.472 598.649 80.0095 597.999C79.9111 597.889 79.8283 597.77 79.7626 597.661C76.7876 593.547 73.9158 589.356 71.0955 585.159C70.2189 583.872 69.3939 582.547 68.5486 581.22C66.508 578.116 64.5064 575.008 62.5705 571.864C61.558 570.253 60.5955 568.636 59.6205 567.016C57.8595 564.08 56.1377 561.142 54.4673 558.18C53.5127 556.503 52.5705 554.866 51.647 553.144C51.133 552.234 50.5752 551.297 50.0752 550.344C49.197 548.756 48.4048 547.102 47.547 545.483C46.222 542.942 44.8767 540.389 43.597 537.803C-10.3983 429.844 -19.2092 297.656 51.4845 196.049L106.663 126.066C44.408 246.389 72.3876 392.906 150.269 499.128C153.081 502.995 155.961 506.809 158.903 510.622C159.814 511.772 160.728 512.93 161.639 514.034C164.088 517.153 166.589 520.233 169.117 523.281C170.028 524.353 170.917 525.405 171.847 526.509C175.227 530.5 178.683 534.463 182.231 538.328C182.4 538.516 182.563 538.686 182.725 538.867C186.078 542.527 189.495 546.138 192.972 549.7C194.05 550.791 195.149 551.87 196.247 552.963C198.977 555.749 201.764 558.453 204.597 561.142C205.669 562.208 206.747 563.234 207.86 564.294C211.686 567.855 215.545 571.395 219.477 574.853C219.886 575.211 220.308 575.541 220.685 575.872C224.324 579.036 228.008 582.117 231.738 585.184C233.038 586.244 234.363 587.302 235.688 588.355C238.617 590.713 241.581 593.008 244.564 595.288C245.988 596.38 247.449 597.491 248.925 598.581C252.167 600.986 255.442 603.352 258.75 605.691C259.874 606.45 260.966 607.277 262.103 608.042C265.522 610.408 269.005 612.708 272.5 614.956C273.813 615.828 275.113 616.738 276.438 617.583C281.26 620.636 286.133 623.638 291.058 626.536C292.325 627.264 293.592 627.945 294.839 628.649C298.556 630.799 302.28 632.916 306.074 634.944C308.127 636.086 310.239 637.12 312.317 638.219C315.424 639.817 318.53 641.442 321.674 642.975C322.863 643.559 324.019 644.106 325.183 644.658C329.192 646.588 333.214 648.447 337.281 650.291C338.244 650.708 339.178 651.142 340.147 651.558C344.885 653.631 349.672 655.62 354.5 657.522C355.741 658.016 356.983 658.491 358.23 658.986C362.622 660.688 367.047 662.339 371.524 663.917C372.219 664.164 372.914 664.417 373.589 664.664C378.58 666.381 383.602 668.017 388.664 669.564C389.956 669.967 391.25 670.358 392.575 670.747C397.76 672.28 402.913 673.938 408.228 675.141C548.499 707.064 696.536 678.395 779.939 569.734ZM285.063 398.059C292.73 409.034 301.216 422.1 311.385 430.92C315.063 434.98 318.922 438.936 322.853 442.828C323.841 443.841 324.861 444.816 325.881 445.809C329.689 449.514 333.588 453.159 337.591 456.7C337.76 456.824 337.91 456.994 338.072 457.111C338.117 457.163 338.156 457.175 338.189 457.227C342.635 461.113 347.222 464.863 351.874 468.545C352.908 469.339 353.933 470.164 354.98 470.97C359.652 474.55 364.416 478.072 369.302 481.424C369.452 481.527 369.567 481.633 369.717 481.736C371.867 483.23 374.064 484.62 376.241 486.05C377.294 486.727 378.288 487.453 379.339 488.091C382.835 490.333 386.364 492.509 389.956 494.602C390.464 494.914 390.958 495.174 391.458 495.466C394.544 497.247 397.695 499.008 400.841 500.709C401.931 501.32 403.05 501.866 404.167 502.45C406.338 503.581 408.52 504.744 410.73 505.842C411.061 505.999 411.406 506.153 411.725 506.291C416.228 508.506 420.769 510.65 425.416 512.664C426.403 513.106 427.43 513.495 428.438 513.913C432.149 515.484 435.891 517.025 439.653 518.467C441.25 519.072 442.87 519.65 444.455 520.228C447.878 521.502 451.303 522.659 454.76 523.816C456.327 524.314 457.86 524.828 459.425 525.309C464.338 526.83 469.197 528.766 474.324 529.611C738.283 573.347 799.219 370.114 799.219 370.114C744.281 449.228 637.902 486.975 524.38 457.514C519.344 456.188 514.375 454.739 509.442 453.186C507.92 452.73 506.439 452.238 504.938 451.736C501.43 450.599 497.939 449.391 494.478 448.13C492.899 447.552 491.314 446.974 489.76 446.375C485.97 444.919 482.222 443.413 478.513 441.841C477.492 441.399 476.472 441.008 475.478 440.553C470.82 438.524 466.233 436.392 461.71 434.156C459.377 433.017 457.095 431.814 454.795 430.634C453.469 429.952 452.138 429.267 450.813 428.584C447.875 426.989 444.952 425.334 442.072 423.656C441.389 423.263 440.675 422.889 439.98 422.477C436.413 420.384 432.891 418.23 429.402 416.017C428.328 415.333 427.289 414.588 426.217 413.883C423.91 412.392 421.617 410.881 419.355 409.349C414.495 405.995 409.764 402.475 405.092 398.914C404.014 398.066 402.942 397.238 401.875 396.389C352.194 357.153 312.813 303.541 294.072 242.749C274.455 179.699 278.686 108.925 312.688 51.4892L270.914 110.455C219.797 184.025 222.572 282.506 262.447 360.314C269.144 373.359 276.661 386.009 285.063 398.059ZM563.281 307.041C565.458 307.853 567.628 308.574 569.83 309.319C570.792 309.614 571.753 309.945 572.722 310.231C575.828 311.209 578.914 312.344 582.125 312.947C727.881 341.108 767.406 238.152 777.933 223C743.3 272.859 685.113 284.828 613.697 267.502C608.064 266.125 601.866 264.088 596.419 262.164C589.447 259.678 582.592 256.845 575.913 253.639C563.224 247.547 551.15 240.156 539.936 231.694C476.044 183.211 436.356 90.7235 478.045 15.4048L455.485 46.5001C425.349 90.8532 422.392 145.934 443.295 194.924C465.349 246.914 510.539 287.706 563.281 307.041Z" fill="#383A43"/>
</svg>
