<svg width="20" height="21" viewBox="0 0 20 21" fill="none" xmlns="http://www.w3.org/2000/svg">
<path d="M18.5186 0.681396H1.47639C0.661389 0.681396 0 1.32723 0 2.12251V19.2383C0 20.0347 0.661389 20.6814 1.47639 20.6814H18.5186C19.3342 20.6814 20 20.0347 20 19.2383V2.12251C20 1.32723 19.3342 0.681396 18.5186 0.681396ZM5.93167 17.7242H2.96389V8.18001H5.93167V17.7242ZM4.44778 6.87501C3.49694 6.87501 2.72833 6.10445 2.72833 5.15445C2.72833 4.20584 3.49694 3.43529 4.44778 3.43529C5.39639 3.43529 6.16694 4.20584 6.16694 5.15445C6.16694 6.10445 5.39639 6.87501 4.44778 6.87501ZM17.0417 17.7242H14.0786V13.0831C14.0786 11.9758 14.0569 10.5522 12.5367 10.5522C10.9928 10.5522 10.7575 11.7581 10.7575 13.0028V17.7245H7.79222V8.18001H10.6381V9.48334H10.6786C11.0747 8.73334 12.0425 7.94195 13.4858 7.94195C16.4875 7.94195 17.0419 9.91806 17.0419 12.4889L17.0417 17.7242Z" fill="#383A43"/>
</svg>
