<svg width="800" height="800" viewBox="0 0 800 800" fill="none" xmlns="http://www.w3.org/2000/svg">
<g clip-path="url(#clip0_161_2)">
<path d="M3.40315 320.969C11.5698 264.469 74.7032 88.3355 251.87 54.9689C356.436 35.2355 485.37 89.4355 575.87 181.236C530.736 212.202 500.57 238.969 477.736 271.502C494.77 334.569 545.003 360.269 580.336 370.969C541.17 347.269 516.436 324.936 501.136 277.236C584.903 177.636 674.636 145.436 682.203 144.636C752.27 200.536 801.736 302.469 799.936 409.802C797.87 534.069 730.27 662.102 652.77 713.836C642.17 718.869 617.67 705.502 614.336 690.936C630.203 654.102 667.703 564.436 672.336 497.402C676.703 433.136 634.136 395.369 598.37 441.836C548.736 524.969 527.07 628.236 505.403 739.636C468.903 750.069 407.003 752.702 380.203 738.436C376.836 669.502 392.903 551.735 347.17 510.436C327.57 492.669 308.203 500.935 295.103 517.269C262.036 558.169 262.703 664.402 269.103 733.236C232.136 756.102 169.436 751.336 129.803 737.136C113.903 628.969 76.5698 497.069 46.0698 396.136C37.5698 436.669 33.4365 484.936 34.7365 526.402C14.3698 509.802 -8.86352 422.536 3.40315 320.969Z" fill="#383A43"/>
</g>
<defs>
<clipPath id="clip0_161_2">
<rect width="800" height="800" fill="white"/>
</clipPath>
</defs>
</svg>
