<svg width="400" height="400" viewBox="0 0 400 400" fill="none" xmlns="http://www.w3.org/2000/svg">
<path d="M110.4 134.533C100.933 137.6 91.8666 143.333 84.4 150.933C80.4 154.933 70 172.666 49.4666 210L20.1333 263.333L52.4 263.733C76.9333 264 84.9333 263.6 86.1333 262.4C87.8666 260.533 157.333 134.133 157.333 132.8C157.333 132.4 148.533 132 137.733 132.133C122.4 132.133 116.267 132.666 110.4 134.533Z" fill="#383A43"/>
<path d="M168.8 134.933C165.867 139.733 98.6666 262.8 98.6666 263.467C98.6666 263.733 113.333 264 131.2 264H163.733L167.067 258.267C171.2 250.933 235.2 134.533 235.733 133.067C236 132.533 221.467 132 203.467 132C170.933 132 170.667 132 168.8 134.933Z" fill="#383A43"/>
<path d="M214.667 193.6C196 227.6 179.6 257.333 178.267 259.733L175.6 264.267L198.133 263.733L220.667 263.333L231.067 258.4C249.467 249.6 252.533 245.467 285.067 185.867C300.533 157.2 313.333 133.467 313.333 132.933C313.333 132.4 298.8 132 280.933 132H248.4L214.667 193.6Z" fill="#383A43"/>
<path d="M341.6 133.733C335.333 135.733 326 144.4 322.667 151.467C318.4 160.267 319.2 173.2 324.8 182.133C335.6 199.6 360.8 202.667 375.333 188.267C382 181.6 384.133 177.067 384.933 167.733C387.067 144.267 364.4 126.4 341.6 133.733Z" fill="#383A43"/>
</svg>
