<svg width="800" height="800" viewBox="0 0 800 800" fill="none" xmlns="http://www.w3.org/2000/svg">
<g clip-path="url(#clip0_157_47)">
<path d="M635.617 10.959H164.384C79.6495 10.959 10.959 79.6495 10.959 164.384V635.617C10.959 720.351 79.6495 789.041 164.384 789.041H635.617C720.351 789.041 789.041 720.351 789.041 635.617V164.384C789.041 79.6495 720.351 10.959 635.617 10.959Z" stroke="#383A43" stroke-width="21.9178"/>
<path d="M610.069 546.282C583.535 545.562 563.266 548.03 545.938 555.337C541.014 557.414 533.161 557.468 532.358 563.64C535.064 566.477 535.484 570.712 537.635 574.201C541.773 580.897 548.758 589.868 554.99 594.574C561.8 599.714 568.819 605.213 576.119 609.663C589.104 617.583 603.602 622.103 616.106 630.036C623.474 634.712 630.795 640.601 637.985 645.878C641.538 648.487 643.928 652.544 648.546 654.177C648.546 653.929 648.546 653.677 648.546 653.425C646.119 650.335 645.494 646.087 643.266 642.86C639.998 639.593 636.728 636.322 633.457 633.051C623.867 620.322 611.693 609.142 598.751 599.855C588.432 592.446 565.333 582.44 561.027 570.43C560.775 570.177 560.526 569.925 560.271 569.673C567.588 568.85 576.156 566.201 582.909 564.393C594.254 561.351 604.392 562.137 616.106 559.112C621.387 557.603 626.667 556.09 631.951 554.584C631.951 553.576 631.951 552.574 631.951 551.566C626.029 545.488 621.807 537.448 615.35 531.949C598.456 517.562 580.015 503.189 561.027 491.204C550.496 484.557 537.481 480.237 526.321 474.604C522.566 472.71 515.972 471.725 513.491 468.567C507.629 461.093 504.435 451.619 499.914 442.914C490.442 424.676 481.141 404.758 472.751 385.571C467.027 372.487 463.289 359.583 456.153 347.844C421.894 291.519 385.017 257.521 327.891 224.105C315.736 216.998 301.101 214.192 285.635 210.525C277.34 210.023 269.037 209.517 260.738 209.015C255.672 206.898 250.402 200.7 245.649 197.697C226.724 185.742 178.183 159.737 164.166 193.925C155.316 215.504 177.393 236.562 185.289 247.496C190.832 255.168 197.928 263.768 201.888 272.395C204.493 278.064 204.943 283.749 207.172 289.75C212.657 304.528 217.427 320.606 224.523 334.264C228.109 341.174 232.062 348.455 236.597 354.636C239.377 358.428 244.14 360.098 244.893 365.954C240.234 372.474 239.968 382.594 237.35 390.853C225.558 428.034 230.005 474.249 247.158 501.767C252.422 510.214 264.819 528.332 281.864 521.384C296.775 515.31 293.444 496.49 297.709 479.886C298.674 476.12 298.082 473.353 299.972 470.832C299.972 471.082 299.972 471.334 299.972 471.587C304.499 480.641 309.027 489.694 313.555 498.746C323.605 514.934 341.444 531.851 356.56 543.266C364.398 549.186 370.57 559.421 380.704 562.883C380.704 562.631 380.704 562.382 380.704 562.127C380.449 562.127 380.2 562.127 379.948 562.127C377.985 559.065 374.913 557.798 372.405 555.337C366.499 549.549 359.935 542.352 355.051 535.72C341.303 517.055 329.151 496.624 318.082 475.359C312.795 465.206 308.2 454.003 303.743 443.669C302.025 439.684 302.045 433.66 298.466 431.596C293.585 439.169 286.395 445.291 282.62 454.232C276.583 468.525 275.803 485.955 273.568 504.03C272.244 504.503 272.832 504.177 272.056 504.782C261.548 502.248 257.854 491.43 253.951 482.151C244.072 458.68 242.237 420.888 250.93 393.873C253.178 386.884 263.343 364.868 259.229 358.411C257.266 351.967 250.785 348.242 247.158 343.318C242.671 337.232 238.19 329.219 235.084 322.191C227 303.891 223.225 283.349 214.714 264.851C210.647 256.008 203.766 247.06 198.116 239.198C191.861 230.49 184.856 224.075 180.009 213.542C178.284 209.8 175.941 203.809 178.499 199.962C179.313 197.365 180.459 196.282 183.027 195.435C187.403 192.06 199.592 196.558 204.15 198.452C216.251 203.477 226.348 208.263 236.597 215.052C241.518 218.315 246.493 224.623 252.439 226.37C254.701 226.37 256.966 226.37 259.229 226.37C269.851 228.812 281.75 227.128 291.672 230.141C309.212 235.473 324.93 243.764 339.205 252.778C382.694 280.237 418.251 319.326 442.573 365.954C446.486 373.461 448.18 380.628 451.625 388.591C458.58 404.649 467.34 421.174 474.257 436.877C481.161 452.545 487.891 468.357 497.649 481.396C502.782 488.249 522.597 491.926 531.602 495.73C537.914 498.399 548.257 501.179 554.237 504.782C565.659 511.673 576.724 519.875 587.437 527.421C592.792 531.193 609.249 539.465 610.069 546.282Z" fill="#383A43"/>
<path fill-rule="evenodd" clip-rule="evenodd" d="M272.812 258.814C267.279 258.713 263.366 259.419 259.229 260.321C259.229 260.574 259.229 260.827 259.229 261.076C259.481 261.076 259.733 261.076 259.985 261.076C262.623 266.499 267.282 269.988 270.546 274.66C273.06 279.941 275.575 285.223 278.092 290.501C278.341 290.251 278.597 289.999 278.845 289.749C283.518 286.457 285.659 281.189 285.635 273.15C283.763 271.18 283.487 268.708 281.864 266.358C279.706 263.226 275.531 261.447 272.812 258.814Z" fill="#383A43"/>
</g>
<defs>
<clipPath id="clip0_157_47">
<rect width="800" height="800" fill="white"/>
</clipPath>
</defs>
</svg>
