<svg width="22" height="22" viewBox="0 0 22 22" fill="none" xmlns="http://www.w3.org/2000/svg">
<path d="M17.5465 18.5456C17.3255 18.756 17.094 18.956 16.8519 19.1454C12.7377 22.3878 6.81833 21.9046 3.28435 18.038C-0.249627 14.1713 -0.199755 8.2325 3.39866 4.42576C6.99707 0.619013 12.9237 0.235329 16.9829 3.54633C21.0421 6.85733 21.8649 12.6527 18.859 16.9427" stroke="#383A43" stroke-width="0.947621"/>
<path d="M17.436 19.1244C17.6975 19.1244 17.9095 18.9123 17.9095 18.6508C17.9095 18.3893 17.6975 18.1772 17.436 18.1772C17.1744 18.1772 16.9624 18.3893 16.9624 18.6508C16.9624 18.9123 17.1744 19.1244 17.436 19.1244Z" fill="#383A43"/>
<path d="M2.21875 6.312C5.07006 5.96557 7.89019 5.79459 10.6791 5.79903C13.4681 5.80348 16.1465 5.98324 18.7144 6.33831" stroke="#383A43" stroke-width="0.947621" stroke-linecap="square"/>
<path d="M10.743 21.3079C13.4601 21.3079 15.6627 16.8202 15.6627 11.2843C15.6627 5.74837 13.4601 1.26062 10.743 1.26062C8.02589 1.26062 5.82324 5.74837 5.82324 11.2843C5.82324 16.8202 8.02589 21.3079 10.743 21.3079Z" stroke="#383A43" stroke-width="0.947621"/>
<path d="M2.71875 16.8092C5.33941 17.1602 7.98477 17.3357 10.6549 17.3357C13.3249 17.3357 16.0115 17.1602 18.7145 16.8092" stroke="#383A43" stroke-width="0.947621" stroke-linecap="square"/>
<path d="M0.84375 11.6263H20.5827" stroke="#383A43" stroke-width="0.947621" stroke-linecap="square"/>
</svg>
