<svg width="20" height="21" viewBox="0 0 20 21" fill="none" xmlns="http://www.w3.org/2000/svg">
<g clip-path="url(#clip0_28_387)">
<path d="M3.7158 3.54589C4.33747 4.05089 4.5708 4.01256 5.73914 3.93422L16.7516 3.27339C16.985 3.27339 16.7908 3.04006 16.7133 3.00172L14.8833 1.67922C14.5333 1.40756 14.0658 1.09589 13.1708 1.17339L2.5083 1.95172C2.11997 1.99006 2.04164 2.18506 2.19664 2.34006L3.7158 3.54589ZM4.37664 6.11256V17.6992C4.37664 18.3217 4.68747 18.5551 5.3883 18.5159L17.4908 17.8159C18.1916 17.7776 18.27 17.3492 18.27 16.8434V5.33422C18.27 4.82922 18.0758 4.55672 17.6466 4.59506L4.99914 5.33422C4.53247 5.37339 4.37664 5.60756 4.37664 6.11256ZM16.3241 6.73339C16.4016 7.08339 16.3241 7.43339 15.9741 7.47339L15.3908 7.59005V16.1434C14.8841 16.4159 14.4175 16.5717 14.0283 16.5717C13.405 16.5717 13.2491 16.3767 12.7825 15.7942L8.9683 9.80589V15.5992L10.175 15.8726C10.175 15.8726 10.175 16.5726 9.20164 16.5726L6.51664 16.7276C6.43914 16.5726 6.51664 16.1834 6.78914 16.1059L7.48914 15.9117V8.25089L6.5183 8.17255C6.43997 7.82256 6.63497 7.31756 7.17914 7.27839L10.0591 7.08422L14.0291 13.1501V7.78339L13.0166 7.66756C12.9391 7.23922 13.25 6.92839 13.6391 6.89006L16.3241 6.73339ZM1.6133 0.901722L12.705 0.0850553C14.0666 -0.0316113 14.4175 0.0458887 15.2733 0.668389L18.8141 3.15672C19.3975 3.58422 19.5925 3.70089 19.5925 4.16756V17.8159C19.5925 18.6709 19.2816 19.1776 18.1925 19.2542L5.3108 20.0326C4.49414 20.0717 4.10414 19.9551 3.6758 19.4101L1.0683 16.0267C0.601637 15.4042 0.407471 14.9384 0.407471 14.3934V2.26172C0.407471 1.56256 0.719137 0.978389 1.6133 0.901722Z" fill="#2B2C2E"/>
</g>
<defs>
<clipPath id="clip0_28_387">
<rect width="20" height="20" fill="white" transform="translate(0 0.0391846)"/>
</clipPath>
</defs>
</svg>
