<svg width="800" height="800" viewBox="0 0 800 800" fill="none" xmlns="http://www.w3.org/2000/svg">
<path d="M274.4 16.8092C128.53 68.0847 28.6317 187.433 4.76208 340.375C-36.7887 599.405 200.139 836.333 459.169 794.782C620.952 769.144 755.329 646.26 790.691 492.433C805.72 428.781 802.184 341.259 782.735 277.607L764.169 219.259H669.575C606.807 219.259 570.56 215.723 563.488 208.65C556.415 201.578 552.879 167.099 552.879 111.404C552.879 24.7657 552.879 23.8817 529.01 14.157C514.865 8.85267 464.473 2.66425 415.85 0.896129C343.357 -1.75605 318.603 0.896129 274.4 16.8092ZM552.879 235.172C552.879 238.708 544.923 266.998 534.314 297.94C507.792 374.853 495.415 381.926 359.27 387.23L249.647 391.651L234.618 435.854C222.241 472.984 216.052 480.057 194.835 482.709C171.849 485.361 170.965 484.477 175.386 458.839C178.922 443.81 190.415 408.448 201.023 380.158L221.357 329.766L339.821 327.114C457.401 324.462 482.154 319.158 482.154 293.52C482.154 283.795 457.401 281.143 359.27 281.143H235.502L244.342 254.621L254.067 228.1H403.473C485.691 228.1 552.879 231.636 552.879 235.172ZM614.763 318.274C614.763 324.462 604.155 360.708 591.778 397.839L568.792 466.796H447.676C326.56 466.796 305.342 472.1 305.342 499.506C305.342 508.346 333.632 510.999 429.111 510.999C497.183 510.999 552.879 512.767 552.879 514.535C552.879 517.187 549.343 528.68 544.039 541.057L535.198 564.042H384.908C302.69 564.042 234.618 560.506 234.618 556.97C234.618 533.1 266.444 458.839 285.893 437.622C307.995 413.752 309.763 413.752 421.154 413.752H533.43L549.343 366.897C557.299 342.143 566.14 318.274 567.908 313.853C574.097 303.245 614.763 306.781 614.763 318.274Z" fill="#383A43"/>
<path d="M623.604 104.331V139.694H665.155H706.706L672.227 104.331C653.662 84.8821 634.213 68.9691 630.676 68.9691C627.14 68.9691 623.604 84.8821 623.604 104.331Z" fill="#383A43"/>
</svg>
