<svg width="800" height="800" viewBox="0 0 800 800" fill="none" xmlns="http://www.w3.org/2000/svg">
<path d="M626.647 350C632.45 356.43 633.827 367.47 630.792 383.109C627.622 399.398 621.519 411.019 612.475 417.984C603.423 424.95 589.659 428.433 571.175 428.433H543.286L560.406 340.355H591.817C609.239 340.355 620.844 343.572 626.647 350ZM233.991 340.355H202.58L185.458 428.433H213.345C231.825 428.433 245.594 424.95 254.645 417.984C263.691 411.019 269.792 399.397 272.962 383.109C275.997 367.469 274.619 356.43 268.817 350C263.016 343.572 251.411 340.355 233.991 340.355ZM799.219 400C799.219 515.983 620.48 610.005 400 610.005C179.52 610.005 0.78125 515.983 0.78125 400C0.78125 284.019 179.52 189.995 400 189.995C620.48 189.995 799.219 284.019 799.219 400ZM310.222 414.509C314.972 405.997 318.352 396.602 320.352 386.327C325.198 361.378 321.541 341.947 309.377 328.025C297.219 314.103 277.869 307.145 251.352 307.145H163.191L122.289 517.595H168.136L179.008 461.65H218.28C235.603 461.65 249.858 459.831 261.048 456.186C272.237 452.547 282.406 446.447 291.561 437.875C299.241 430.813 305.458 423.028 310.222 414.509ZM471.584 461.65L490.617 363.709C494.491 343.792 491.584 329.38 481.911 320.484C472.23 311.597 454.647 307.145 429.148 307.145H388.628L399.505 251.192H354.02L313.111 461.648H358.595L382.027 341.078H418.381C430.019 341.078 437.627 343.003 441.2 346.856C444.773 350.711 445.533 357.936 443.473 368.527L425.378 461.648H471.584V461.65ZM667.205 328.027C655.048 314.105 635.698 307.147 609.181 307.147H521.019L480.116 517.597H525.964L536.834 461.652H576.108C593.43 461.652 607.686 459.833 618.875 456.188C630.064 452.548 640.233 446.448 649.388 437.877C657.075 430.813 663.287 423.03 668.048 414.511C672.805 405.998 676.177 396.603 678.178 386.328C683.027 361.378 679.369 341.947 667.205 328.027Z" fill="#383A43"/>
</svg>
