<svg width="800" height="800" viewBox="0 0 800 800" fill="none" xmlns="http://www.w3.org/2000/svg">
<path d="M531.625 750C524.045 749.998 516.523 748.669 509.4 746.075L93.2751 595C85.1863 592.067 77.7556 587.567 71.4084 581.757C65.0611 575.948 59.9221 568.944 56.2855 561.146C52.649 553.348 50.5863 544.91 50.2155 536.313C49.8448 527.717 51.1734 519.132 54.1251 511.05L206.825 92.975C212.793 76.7153 224.956 63.4799 240.654 56.1623C256.353 48.8447 274.31 48.0404 290.6 53.925L706.75 205C714.839 207.933 722.27 212.433 728.617 218.243C734.964 224.052 740.103 231.056 743.74 238.854C747.376 246.652 749.439 255.09 749.81 263.687C750.18 272.283 748.852 280.868 745.9 288.95L732.775 324.875C731.051 329.672 728.089 333.927 724.191 337.211C720.292 340.495 715.595 342.69 710.575 343.575C705.65 344.507 700.566 344.122 695.838 342.458C691.11 340.795 686.906 337.911 683.65 334.1C675.35 324.596 665.096 316.996 653.589 311.818C642.082 306.641 629.593 304.008 616.975 304.1H616.65C594.223 303.725 572.562 312.256 556.414 327.823C540.265 343.39 530.947 364.724 530.5 387.15C531.083 409.525 540.497 430.761 556.686 446.219C572.874 461.676 594.522 470.1 616.9 469.65H617.225C622.863 469.633 628.488 469.089 634.025 468.025C638.999 467.036 644.148 467.406 648.93 469.095C653.712 470.784 657.951 473.731 661.2 477.625C664.555 481.566 666.806 486.326 667.723 491.42C668.641 496.514 668.193 501.76 666.425 506.625L593.125 707.325C588.452 719.863 580.056 730.672 569.063 738.3C558.069 745.928 545.006 750.011 531.625 750ZM268.35 71.8C259.402 71.8039 250.67 74.5531 243.334 79.6764C235.998 84.7997 230.41 92.0505 227.325 100.45L74.6001 518.65C72.636 524.037 71.7531 529.759 72.0021 535.487C72.2511 541.216 73.6269 546.839 76.051 552.036C78.4751 557.232 81.8998 561.9 86.1294 565.772C90.3589 569.643 95.3102 572.643 100.7 574.6L516.85 725.55C527.712 729.474 539.686 728.937 550.153 724.055C560.62 719.173 568.727 710.344 572.7 699.5L646 498.8C646.442 497.56 646.55 496.226 646.313 494.932C646.076 493.637 645.502 492.428 644.65 491.425C643.891 490.484 642.888 489.769 641.751 489.359C640.613 488.949 639.385 488.859 638.2 489.1C631.32 490.423 624.331 491.101 617.325 491.125H616.925C588.789 491.568 561.619 480.862 541.348 461.344C521.076 441.827 509.349 415.083 508.725 386.95C509.14 358.732 520.73 331.83 540.953 312.146C561.176 292.462 588.381 281.603 616.6 281.95H617C632.765 281.873 648.36 285.201 662.72 291.708C677.079 298.215 689.864 307.746 700.2 319.65C700.987 320.567 702.004 321.258 703.146 321.654C704.288 322.049 705.514 322.134 706.7 321.9C707.973 321.682 709.164 321.13 710.153 320.3C711.141 319.469 711.891 318.391 712.325 317.175L725.45 281.275C727.418 275.886 728.304 270.162 728.057 264.431C727.81 258.7 726.435 253.073 724.01 247.874C721.586 242.675 718.16 238.004 713.929 234.131C709.697 230.257 704.743 227.256 699.35 225.3L283.175 74.425C278.424 72.6925 273.407 71.8041 268.35 71.8Z" fill="#383A43"/>
<path d="M616.95 437.5C603.454 437.523 590.501 432.184 580.942 422.657C571.382 413.13 565.998 400.196 565.975 386.7C565.952 373.204 571.291 360.251 580.818 350.691C590.345 341.132 603.279 335.748 616.775 335.725C623.463 335.653 630.097 336.924 636.285 339.462C642.473 342 648.089 345.753 652.8 350.5C659.937 357.594 664.811 366.644 666.806 376.506C668.802 386.369 667.83 396.602 664.012 405.912C660.194 415.222 653.703 423.192 645.357 428.814C637.012 434.436 627.188 437.459 617.125 437.5H616.95ZM616.95 361.175C610.342 361.382 604.073 364.153 599.472 368.901C594.871 373.649 592.298 380.001 592.298 386.613C592.298 393.224 594.871 399.576 599.472 404.324C604.073 409.072 610.342 411.843 616.95 412.05C623.559 411.843 629.827 409.072 634.428 404.324C639.03 399.576 641.603 393.224 641.603 386.613C641.603 380.001 639.03 373.649 634.428 368.901C629.827 364.153 623.559 361.382 616.95 361.175Z" fill="#383A43"/>
<path d="M695.269 403.506L682.523 429.638L719.576 447.71L732.321 421.578L695.269 403.506Z" fill="#383A43"/>
</svg>
