<svg width="18" height="21" viewBox="0 0 18 21" fill="none" xmlns="http://www.w3.org/2000/svg">
<g clip-path="url(#clip0_28_355)">
<path d="M17.1493 15.9496L10.2904 1.38391C10.1168 1.01871 9.75695 0.778102 9.35313 0.757204C8.94837 0.730085 8.56212 0.930319 8.351 1.27671L0.911832 13.3257C0.680887 13.6971 0.685746 14.1686 0.924296 14.5352L4.56137 20.1675C4.84396 20.6018 5.37852 20.7983 5.8751 20.6507L16.4298 17.5286C16.7514 17.4346 17.0164 17.2058 17.1563 16.9014C17.2942 16.5985 17.2919 16.2502 17.1498 15.9491L17.1493 15.9496ZM15.6137 16.5744L6.65736 19.2228C6.38414 19.304 6.12189 19.0672 6.17873 18.7915L9.37856 3.46993C9.43838 3.18325 9.83425 3.13788 9.95939 3.40312L15.8829 15.982C15.9359 16.0955 15.9365 16.2265 15.8847 16.3404C15.8328 16.4544 15.7335 16.5399 15.6132 16.5744H15.6137Z" fill="#383A43"/>
</g>
<defs>
<clipPath id="clip0_28_355">
<rect width="16.5161" height="20" fill="white" transform="translate(0.741943 0.754883)"/>
</clipPath>
</defs>
</svg>
