<svg width="800" height="800" viewBox="0 0 800 800" fill="none" xmlns="http://www.w3.org/2000/svg">
<path d="M399.999 471.251C439.349 471.251 471.249 439.351 471.249 400C471.249 360.65 439.349 328.75 399.999 328.75C360.649 328.75 328.749 360.65 328.749 400C328.749 439.351 360.649 471.251 399.999 471.251Z" fill="#383A43"/>
<path d="M670.625 282.5C656.875 277.5 642.5 272.501 627.5 268.126C631.25 253.126 634.375 238.125 636.875 223.75C650 141.25 635.625 83.1255 595.625 60.6255C583.75 53.7505 570.625 50.6255 555.625 50.6255C511.875 50.6255 456.25 83.1255 400 137.5C343.75 83.1255 288.124 50.6255 244.374 50.6255C229.374 50.6255 216.25 53.7505 204.375 60.6255C164.375 83.7505 150 141.875 163.125 223.75C165.625 238.125 168.75 253.126 172.5 268.126C157.5 272.501 143.125 276.875 129.375 282.5C51.2495 312.5 8.74951 353.75 8.74951 400C8.74951 446.25 51.8745 487.501 129.375 517.501C143.125 522.501 157.5 527.5 172.5 531.875C168.75 546.875 165.625 561.875 163.125 576.25C150 658.75 164.375 716.876 204.375 739.376C216.25 746.251 229.374 749.376 244.374 749.376C288.749 749.376 344.375 716.875 400 662.5C456.25 716.875 511.875 749.376 555.625 749.376C570.625 749.376 583.75 746.251 595.625 739.376C635.625 716.251 650 658.125 636.875 576.25C634.375 561.875 631.25 546.875 627.5 531.875C642.5 527.5 656.875 523.126 670.625 517.501C748.75 487.501 791.249 446.25 791.249 400C791.249 353.75 748.75 312.5 670.625 282.5ZM578.125 91.8755C603.75 106.875 612.5 153.125 601.875 218.75C600 231.875 596.875 245.625 593.125 260C560.625 252.5 526.25 247.5 490 244.375C468.75 214.375 446.875 187.5 425 163.125C471.25 117.5 518.125 86.2505 556.25 86.2505C564.375 86.2505 571.875 88.1255 578.125 91.8755ZM508.125 462.5C496.875 482.5 483.749 502.5 469.999 522.5C446.874 524.375 423.75 525 400 525C375.625 525 352.499 524.375 329.999 522.5C316.249 502.5 303.749 482.5 292.499 462.5C280.624 441.875 269.375 420.625 259.375 400C269.375 379.375 280.624 358.125 292.499 337.5C303.749 317.5 316.875 297.501 330.625 277.501C353.75 275.626 376.874 275 400.624 275C424.999 275 448.125 275.626 470.625 277.501C484.375 297.501 496.875 317.5 508.125 337.5C520 358.125 531.249 379.375 541.249 400C530.624 420.625 520 441.25 508.125 462.5ZM559.999 441.875C569.374 463.75 576.875 485 583.75 506.25C562.5 511.25 539.999 515.001 516.249 518.126C523.749 506.251 531.874 493.751 538.749 480.626C546.249 467.501 553.124 454.375 559.999 441.875ZM400 611.251C385 595.001 370.624 577.5 356.874 559.375C371.249 560 385.625 560.625 400 560.625C414.375 560.625 428.75 560 443.125 559.375C429.375 577.5 415 595.001 400 611.251ZM283.75 517.501C260 514.376 237.499 510.626 216.249 505.626C223.124 485.001 230.625 463.125 240 441.25C246.875 453.75 253.749 466.875 261.249 479.375C268.749 493.125 276.25 505.001 283.75 517.501ZM240 358.125C230.625 336.25 223.124 315 216.249 293.75C237.499 288.75 260 285 283.75 281.875C276.25 293.75 268.124 306.25 261.249 319.375C253.749 332.5 246.875 345.625 240 358.125ZM400 188.75C415 205 429.375 222.5 443.125 240.625C428.75 240 414.375 239.375 400 239.375C385.625 239.375 371.249 240 356.874 240.625C370.624 222.5 385 205 400 188.75ZM538.749 320L516.249 282.5C539.999 285.625 562.5 289.375 583.75 294.375C576.875 315 569.374 336.876 559.999 358.751C553.124 345.626 546.249 332.5 538.749 320ZM198.125 218.75C187.5 153.125 196.25 106.875 221.875 91.8755C228.125 88.1255 235.625 86.2505 243.75 86.2505C281.25 86.2505 328.125 116.875 375 163.125C353.125 186.875 331.249 214.375 309.999 244.375C273.749 247.5 239.375 253.125 206.875 260C203.125 245.625 200.625 231.875 198.125 218.75ZM43.7495 400C43.7495 370.625 79.3745 339.375 141.875 316.25C154.375 311.25 168.125 306.875 181.875 303.125C191.875 334.375 204.374 367.5 219.374 400.625C204.374 433.75 191.25 466.25 181.875 497.5C95.6245 472.5 43.7495 435 43.7495 400ZM221.875 708.126C196.25 693.126 187.5 646.875 198.125 581.25C200 568.125 203.125 554.376 206.875 540.001C239.375 547.501 273.749 552.501 309.999 555.626C331.249 585.626 353.125 612.501 375 636.876C328.75 682.501 281.875 713.75 243.75 713.75C235.625 713.75 228.125 711.876 221.875 708.126ZM601.875 581.25C612.5 646.875 603.75 693.126 578.125 708.126C571.875 711.876 564.375 713.75 556.25 713.75C518.75 713.75 471.875 683.126 425 636.876C446.875 613.126 468.75 585.626 490 555.626C526.25 552.501 560.625 546.876 593.125 540.001C596.875 554.376 599.375 568.125 601.875 581.25ZM658.125 483.751C645.625 488.751 631.875 493.125 618.125 496.875C608.125 465.625 595.625 432.501 580.625 399.376C595.625 366.251 608.75 333.751 618.125 302.501C704.375 327.501 756.25 365 756.25 400C756.25 429.375 720 460.626 658.125 483.751Z" fill="#383A43"/>
</svg>
