<svg width="800" height="800" viewBox="0 0 800 800" fill="none" xmlns="http://www.w3.org/2000/svg">
<g clip-path="url(#clip0_163_10)">
<path d="M211.9 300C124 322.667 66.6665 361.5 66.6665 405.833C66.6665 476.067 213.5 533.333 395 533.333C419.667 533.333 437 532.033 460 530.1" stroke="#383A43" stroke-width="66.6667" stroke-linecap="round" stroke-linejoin="round"/>
<path d="M327.904 530.007C314.137 510.141 301.037 492.241 288.571 470.007C196.871 306.674 172.304 144.341 234.237 107.574C272.571 84.3407 335.804 116.007 400.037 182.707" stroke="#383A43" stroke-width="66.6667" stroke-linecap="round" stroke-linejoin="round"/>
<path d="M214.307 512.9C190.907 602.5 195.64 670.1 232.974 692.733C292.407 728.733 412.54 627.467 501.074 465.933C513.074 443.6 523.84 421.633 533.34 400" stroke="#383A43" stroke-width="66.6667" stroke-linecap="round" stroke-linejoin="round"/>
<path d="M400 617.321C464.267 683.987 527.233 715.654 565.933 692.421C627.6 655.687 603.3 493.354 511.5 329.987C498.7 307.421 485.6 289.854 472.167 269.987" stroke="#383A43" stroke-width="66.6667" stroke-linecap="round" stroke-linejoin="round"/>
<path d="M588.673 500C675.74 477.1 733.34 438.334 733.34 394.134C733.34 323.8 586.406 266.667 405.173 266.667C380.273 266.667 362.973 267.634 340.006 269.567" stroke="#383A43" stroke-width="66.6667" stroke-linecap="round" stroke-linejoin="round"/>
<path d="M266.667 399.992C276.167 377.992 286.9 356.392 298.933 334.059C387.167 172.592 507.366 71.0586 567.133 107.359C604.133 129.992 609.2 197.559 585.8 287.125" stroke="#383A43" stroke-width="66.6667" stroke-linecap="round" stroke-linejoin="round"/>
<path d="M408.675 400.491H408.341C408.008 404.824 404.341 408.491 399.675 408.491C397.443 408.381 395.337 407.422 393.788 405.811C392.239 404.201 391.364 402.059 391.341 399.824C391.341 395.158 395.008 391.491 399.341 391.491H399.008C403.341 391.158 407.341 395.158 407.341 399.491" stroke="#383A43" stroke-width="66.6667" stroke-linecap="round" stroke-linejoin="round"/>
</g>
<defs>
<clipPath id="clip0_163_10">
<rect width="800" height="800" fill="white"/>
</clipPath>
</defs>
</svg>
