<svg width="284" height="269" viewBox="0 0 284 269" fill="none" xmlns="http://www.w3.org/2000/svg">
<path d="M271.646 224.441L47.6182 269L3.06348 44.9619L227.091 0.412733L271.646 224.441Z" fill="#150000"/>
<path d="M251.566 251.42H23.1506V23.0011H251.566V251.42Z" fill="#5C111A"/>
<path d="M71.8268 100.489H38.0039V66.6663H71.8268V100.489Z" fill="#A6965B"/>
<path d="M114.44 100.489H80.6162V66.6663H114.44V100.489Z" fill="#ED4E1C"/>
<path d="M157.055 100.489H123.229V66.6663H157.055V100.489Z" fill="#211D1D"/>
<path d="M199.67 100.489H165.846V66.6663H199.67V100.489Z" fill="#ED4E1C"/>
<path d="M242.282 100.489H208.457V66.6663H242.282V100.489Z" fill="#A6965B"/>
<path d="M130.709 84.4687C131.588 81.6593 132.358 79.0159 132.559 78.1249C132.739 77.3047 133.248 78.2251 133.35 78.5246C133.393 78.6547 134.217 81.4351 135.168 84.5239L130.709 84.4687ZM135.326 74.2674C134.535 72.8807 132.952 72.4864 132.559 73.2776C132.16 74.0674 126.424 90.884 126.522 91.6772C126.62 92.4636 126.919 93.1591 127.61 92.9594C127.931 92.8749 129.191 89.2352 130.368 85.5389C130.37 85.5389 130.374 85.5515 130.381 85.5515C131.341 85.5515 133.706 85.5849 135.499 85.5948C136.611 89.1565 137.793 92.7621 138.095 92.9594C138.69 93.3611 139.779 92.4636 140.074 92.0742C140.372 91.6772 141.262 90.884 141.36 90.591C141.459 90.2915 136.115 75.6559 135.326 74.2674Z" fill="#F4F0EE"/>
<path d="M152.988 81.1603C153.239 79.4089 150.592 79.0014 150.337 79.6788C149.775 81.1893 149.328 87.2438 149.201 89.2687C149.183 89.5379 149.178 89.8067 149.179 90.081C148.795 90.2671 148.355 90.4136 147.854 90.4814C145.827 90.7506 144.476 88.4619 144.612 86.0243C144.745 83.5921 147.293 80.1129 146.637 79.6822C145.424 78.8719 143.803 82.6537 142.988 86.167C142.18 89.6746 145.288 92.3769 147.448 92.6485C148.152 92.7326 148.819 92.5071 149.407 92.1803C149.611 92.9882 149.959 93.5269 150.464 93.457C151.473 93.3269 152.734 93.0577 152.734 91.8389C152.734 90.6191 152.44 84.9857 152.988 81.1603Z" fill="#F4F0EE"/>
<path d="M5.1233 226.091C2.34154 226.091 0.0773926 228.106 0.0773926 230.585C0.0773926 233.069 2.34154 235.082 5.1233 235.082H278.954C281.738 235.082 284 233.069 284 230.585C284 228.106 281.738 226.091 278.954 226.091H5.1233Z" fill="#221D1D"/>
<path d="M281.87 230.585C281.87 231.893 280.563 232.955 278.953 232.955H5.12252C3.51269 232.955 2.20752 231.893 2.20752 230.585C2.20752 229.28 3.51269 228.218 5.12252 228.218H278.953C280.563 228.218 281.87 229.28 281.87 230.585Z" fill="#F5F0EE"/>
<path d="M5.04698 144.07C2.26295 144.07 0 146.084 0 148.567C0 151.047 2.26295 153.064 5.04698 153.064H278.875C281.662 153.064 283.921 151.047 283.921 148.567C283.921 146.084 281.662 144.07 278.875 144.07H5.04698Z" fill="#221D1D"/>
<path d="M281.794 148.567C281.794 149.873 280.486 150.934 278.875 150.934H5.04655C3.43566 150.934 2.13208 149.873 2.13208 148.567C2.13208 147.259 3.43566 146.197 5.04655 146.197H278.875C280.486 146.197 281.794 147.259 281.794 148.567Z" fill="#F5F0EE"/>
<path d="M72.4272 146.4C75.6199 149.594 51.9645 154.751 49.4591 173.127C46.4671 195.059 69.9195 204.86 74.0955 206.113C78.2722 207.367 80.7769 206.95 77.0176 212.379C73.2624 217.805 72.8436 221.985 61.5674 217.389C50.2925 212.793 28.5793 198.176 36.0962 176.048C43.4881 154.285 69.9215 143.892 72.4272 146.4Z" fill="#211D1D"/>
<path d="M125.169 210.78C121.774 207.578 119.472 203.288 118.341 200.885C121.37 192.105 122.009 183.604 120.641 183.465C117.81 183.181 115.689 182.331 113.564 187.567C111.441 192.804 100.545 212.334 95.4514 208.654C93.0223 206.899 88.1896 205.213 99.9817 188.703C110.592 173.839 121.033 176.092 120.782 173.698C120.502 171.007 109.181 171.155 94.7454 185.589C80.3098 200.027 84.2729 220.363 99.8386 220.121C106.5 220.016 111.464 214.98 114.936 208.683C116.406 214.726 120.167 221.64 125.309 218.705C131.254 215.307 130.122 215.447 125.169 210.78Z" fill="#211D1D"/>
<path d="M160.263 173.982C155.076 175.63 151.271 179.934 147.932 183.614C147.907 181.28 147.869 179.596 147.811 179.078C147.531 176.528 147.67 174.553 145.687 174.978C143.524 175.44 140.594 175.538 139.461 177.664C138.649 179.191 135.642 217.432 137.341 218.28C139.037 219.124 147.672 220.54 147.811 216.013C147.872 213.982 147.936 206.863 147.961 199.39C148.031 199.258 148.084 199.073 148.092 198.747C148.234 194.506 154.165 182.912 160.688 178.798C167.195 174.694 171.649 178.221 172.008 175.823C172.433 172.989 166.489 172.006 160.263 173.982Z" fill="#211D1D"/>
<path d="M198.101 173.872C192.911 175.519 189.109 179.821 185.772 183.5C185.743 181.167 185.703 179.483 185.644 178.964C185.367 176.415 185.508 174.439 183.519 174.865C181.359 175.326 178.433 175.426 177.296 177.55C176.485 179.078 173.482 217.318 175.173 218.167C176.877 219.012 185.508 220.428 185.644 215.902C185.708 213.869 185.772 206.75 185.796 199.278C185.87 199.145 185.919 198.96 185.927 198.636C186.071 194.394 192.002 182.803 198.526 178.684C205.034 174.581 209.484 178.108 209.849 175.709C210.27 172.876 204.329 171.892 198.101 173.872Z" fill="#211D1D"/>
<path d="M219.762 193.189C219.835 192.352 219.9 191.525 220.05 190.616C222.763 174.624 239.963 174.739 240.647 182.989C241.455 192.72 236.46 193.647 227.995 193.209C224.282 193.018 221.621 193.045 219.762 193.189ZM244.698 182.989C243.544 172.286 230.752 172.778 224.915 175.857C219.08 178.936 209.024 186.232 209.187 199.533C209.349 212.834 222.644 220.456 224.915 221.264C228.061 222.384 234.163 220.937 237.241 218.181C240.321 215.426 238.215 214.775 236.431 213.479C234.811 212.298 219.881 210.944 219.681 195.673C240.546 198.286 245.804 193.273 244.698 182.989Z" fill="#211D1D"/>
<path d="M218.21 161.577C218.676 162.739 220.693 162.307 222.889 161.282C225.086 160.262 241.751 153.828 242.63 152.952C243.51 152.074 242.337 149.583 241.314 147.831C240.292 146.081 238.98 144.034 236.198 145.933C233.42 147.831 219.681 158.951 218.799 159.533C217.918 160.114 217.918 160.849 218.21 161.577Z" fill="#221D1D"/>
<path d="M69.9225 145.772C73.1152 148.966 49.4601 154.127 46.9526 172.5C43.9644 194.434 67.414 204.235 71.5897 205.488C75.7668 206.741 78.2732 206.325 74.5149 211.751C70.7559 217.177 70.3372 221.357 59.0637 216.763C47.7874 212.167 26.0767 197.549 33.5925 175.423C40.9837 153.66 67.4157 143.264 69.9225 145.772Z" fill="#F4F0EE"/>
<path d="M122.663 210.152C119.267 206.95 116.965 202.664 115.835 200.257C118.864 191.479 119.503 182.976 118.135 182.841C115.304 182.557 113.183 181.706 111.059 186.942C108.934 192.176 98.0399 211.708 92.9445 208.026C90.5154 206.27 85.6849 204.588 97.4749 188.075C108.086 173.214 118.526 175.467 118.277 173.074C117.994 170.382 106.674 170.529 92.2385 184.964C77.8034 199.4 81.7654 219.738 97.3325 219.493C103.995 219.391 108.957 214.356 112.428 208.055C113.9 214.101 117.659 221.015 122.804 218.077C128.745 214.682 127.617 214.819 122.663 210.152Z" fill="#F4F0EE"/>
<path d="M157.758 173.356C152.57 175.006 148.767 179.306 145.428 182.989C145.402 180.652 145.361 178.971 145.305 178.45C145.025 175.9 145.164 173.924 143.181 174.35C141.017 174.815 138.087 174.913 136.957 177.038C136.142 178.563 133.136 216.806 134.833 217.652C136.532 218.5 145.166 219.916 145.305 215.386C145.368 213.358 145.431 206.235 145.455 198.763C145.526 198.633 145.576 198.445 145.588 198.122C145.729 193.88 151.66 182.288 158.183 178.172C164.692 174.066 169.143 177.593 169.504 175.197C169.931 172.364 163.986 171.381 157.758 173.356Z" fill="#F4F0EE"/>
<path d="M195.595 173.244C190.406 174.894 186.606 179.194 183.266 182.874C183.237 180.54 183.2 178.858 183.139 178.337C182.861 175.788 183.002 173.81 181.016 174.236C178.854 174.702 175.927 174.801 174.793 176.924C173.978 178.45 170.972 216.694 172.668 217.54C174.371 218.388 183.002 219.802 183.139 215.277C183.201 213.244 183.266 206.126 183.293 198.65C183.364 198.52 183.412 198.335 183.422 198.01C183.567 193.768 189.497 182.175 196.02 178.06C202.527 173.953 206.983 177.48 207.344 175.084C207.764 172.251 201.822 171.268 195.595 173.244Z" fill="#F4F0EE"/>
<path d="M217.258 192.565C217.33 191.728 217.394 190.9 217.545 189.991C220.256 173.999 237.459 174.11 238.141 182.365C238.949 192.095 233.955 193.018 225.492 192.584C221.779 192.394 219.117 192.417 217.258 192.565ZM242.195 182.365C241.042 171.658 228.247 172.153 222.409 175.232C216.572 178.307 206.522 185.604 206.68 198.904C206.844 212.206 220.14 219.83 222.409 220.639C225.554 221.759 231.658 220.311 234.738 217.557C237.816 214.801 235.709 214.15 233.925 212.854C232.306 211.673 217.375 210.319 217.175 195.045C238.04 197.657 243.302 192.649 242.195 182.365Z" fill="#F4F0EE"/>
<path d="M215.708 160.952C216.169 162.11 218.187 161.68 220.383 160.658C222.579 159.636 239.243 153.2 240.124 152.324C241.007 151.449 239.83 148.959 238.808 147.206C237.786 145.454 236.474 143.409 233.692 145.308C230.914 147.206 217.175 158.323 216.291 158.908C215.412 159.489 215.412 160.223 215.708 160.952Z" fill="#F5F0EE"/>
<path d="M54.9172 136.196C54.9172 137.44 53.9076 138.446 52.6619 138.446C51.4195 138.446 50.4072 137.44 50.4072 136.196C50.4072 134.952 51.4195 133.94 52.6619 133.94C53.9076 133.94 54.9172 134.952 54.9172 136.196Z" fill="#221D1D"/>
<path d="M39.7412 220.496C39.7412 221.738 38.7278 222.748 37.4848 222.748C36.2425 222.748 35.2346 221.738 35.2346 220.496C35.2346 219.252 36.2425 218.24 37.4848 218.24C38.7278 218.24 39.7412 219.252 39.7412 220.496Z" fill="#221D1D"/>
<path d="M159.214 160.982C159.214 162.224 158.194 163.231 156.951 163.231C155.708 163.231 154.702 162.224 154.702 160.982C154.702 159.738 155.708 158.724 156.951 158.724C158.194 158.724 159.214 159.738 159.214 160.982Z" fill="#221D1D"/>
<path d="M154.703 219.287C154.703 220.532 153.683 221.539 152.44 221.539C151.197 221.539 150.191 220.532 150.191 219.287C150.191 218.047 151.197 217.032 152.44 217.032C153.683 217.032 154.703 218.047 154.703 219.287Z" fill="#221D1D"/>
<path d="M193.016 219.302C193.016 220.546 191.996 221.553 190.754 221.553C189.51 221.553 188.504 220.546 188.504 219.302C188.504 218.06 189.51 217.047 190.754 217.047C191.996 217.047 193.016 218.06 193.016 219.302Z" fill="#221D1D"/>
<path d="M241.704 202.772C241.704 204.015 240.688 205.023 239.443 205.023C238.202 205.023 237.193 204.015 237.193 202.772C237.193 201.529 238.202 200.518 239.443 200.518C240.688 200.518 241.704 201.529 241.704 202.772Z" fill="#221D1D"/>
<path d="M201.285 160.678C201.285 161.92 200.268 162.93 199.024 162.93C197.782 162.93 196.773 161.92 196.773 160.678C196.773 159.434 197.782 158.422 199.024 158.422C200.268 158.422 201.285 159.434 201.285 160.678Z" fill="#221D1D"/>
<path d="M60.3371 186.524C60.3371 187.769 59.3187 188.776 58.0781 188.776C56.8327 188.776 55.8262 187.769 55.8262 186.524C55.8262 185.283 56.8327 184.27 58.0781 184.27C59.3187 184.27 60.3371 185.283 60.3371 186.524Z" fill="#221D1D"/>
<path d="M53.3989 135.486C53.3989 136.728 52.3882 137.738 51.1415 137.738C49.8992 137.738 48.8889 136.728 48.8889 135.486C48.8889 134.241 49.8992 133.229 51.1415 133.229C52.3882 133.229 53.3989 134.241 53.3989 135.486Z" fill="#F5F0EE"/>
<path d="M38.2212 219.788C38.2212 221.029 37.2089 222.037 35.9659 222.037C34.7236 222.037 33.7146 221.029 33.7146 219.788C33.7146 218.544 34.7236 217.53 35.9659 217.53C37.2089 217.53 38.2212 218.544 38.2212 219.788Z" fill="#F5F0EE"/>
<path d="M157.693 160.271C157.693 161.514 156.674 162.521 155.432 162.521C154.189 162.521 153.182 161.514 153.182 160.271C153.182 159.029 154.189 158.016 155.432 158.016C156.674 158.016 157.693 159.029 157.693 160.271Z" fill="#F5F0EE"/>
<path d="M153.185 218.578C153.185 219.819 152.167 220.83 150.925 220.83C149.682 220.83 148.673 219.819 148.673 218.578C148.673 217.333 149.682 216.32 150.925 216.32C152.167 216.32 153.185 217.333 153.185 218.578Z" fill="#F5F0EE"/>
<path d="M191.5 218.592C191.5 219.838 190.48 220.845 189.236 220.845C187.995 220.845 186.984 219.838 186.984 218.592C186.984 217.352 187.995 216.336 189.236 216.336C190.48 216.336 191.5 217.352 191.5 218.592Z" fill="#F5F0EE"/>
<path d="M240.187 202.061C240.187 203.306 239.17 204.314 237.927 204.314C236.684 204.314 235.675 203.306 235.675 202.061C235.675 200.82 236.684 199.807 237.927 199.807C239.17 199.807 240.187 200.82 240.187 202.061Z" fill="#F5F0EE"/>
<path d="M199.767 159.969C199.767 161.21 198.748 162.218 197.505 162.218C196.263 162.218 195.255 161.21 195.255 159.969C195.255 158.724 196.263 157.712 197.505 157.712C198.748 157.712 199.767 158.724 199.767 159.969Z" fill="#F5F0EE"/>
<path d="M58.8178 185.816C58.8178 187.06 57.8 188.067 56.557 188.067C55.3147 188.067 54.3062 187.06 54.3062 185.816C54.3062 184.573 55.3147 183.561 56.557 183.561C57.8 183.561 58.8178 184.573 58.8178 185.816Z" fill="#F5F0EE"/>
<path d="M70.2878 31.4062C71.2803 31.4062 72.3918 31.9245 72.3918 33.1113C72.3918 34.2643 71.082 34.8984 70.6861 34.9785C70.2091 35.0565 70.2493 34.7788 70.328 34.5819C70.4476 34.3025 70.4857 34.2245 70.4857 33.9853C70.4857 33.7464 70.2493 33.4285 69.653 33.4285C67.9473 33.4285 65.6855 35.1346 64.1801 37.0007C62.3558 39.4193 60.6876 42.6331 60.6876 45.6867C60.6876 47.5519 61.6393 48.463 63.1477 48.463C66.9571 48.463 71.3993 44.8949 72.2726 44.2195C72.8671 43.7449 73.105 44.1408 72.8256 44.7759C72.5083 45.409 70.6861 47.235 67.8689 48.7802C65.8865 49.9302 63.942 50.5674 62.0761 50.5674C59.3806 50.5674 58.3481 48.1461 58.3481 45.6482C58.3481 40.9679 62.1579 34.5819 67.3128 32.1596C68.5436 31.5654 69.4145 31.4062 70.2493 31.4062H70.2878Z" fill="white"/>
<path d="M80.4017 38.2695C79.848 38.2695 79.0132 38.983 77.9416 40.2928C76.0383 42.5137 74.9289 45.212 74.5336 46.639C74.2941 47.3927 74.4522 47.9883 74.967 47.9883C75.2843 47.9883 75.8812 47.5518 76.6349 46.8768C77.3075 46.243 78.4193 44.8539 79.6095 43.2677C80.0845 42.5927 80.9193 40.8864 81.0767 40.6107C81.2365 40.2144 81.3534 39.6175 81.2744 39.1435C81.1956 38.6655 80.9578 38.2695 80.4423 38.2695H80.4017ZM81.5541 36.128C81.9497 36.128 82.3463 36.6044 82.5841 36.9216C82.6254 37.0787 82.7818 37.1196 82.9426 37.0006C83.2189 36.8017 83.4574 36.8016 83.6966 36.9604C84.2898 37.3179 84.2496 37.7141 84.0517 38.1101C82.8612 40.7296 82.1071 43.0289 82.1071 45.2907C82.1071 47.0751 82.3463 48.3842 83.298 48.3842C84.9655 48.3842 88.0594 44.816 89.9634 42.1965C90.1995 41.8005 90.5576 41.8391 90.5576 42.1563C90.5576 42.5137 90.438 42.9907 90.1995 43.5437C88.732 46.44 84.5669 50.4484 82.5054 50.4484C81.5541 50.4484 80.4017 49.2169 80.244 47.5899C80.166 46.7579 80.1244 45.6481 80.1244 45.212C80.1244 44.9322 80.0464 44.8948 79.8085 45.1336C79.2521 45.8849 77.0305 48.3433 75.9593 49.2582C75.0076 50.0909 74.2542 50.4484 73.66 50.4484C73.3015 50.4484 71.9924 49.9707 71.9924 48.5041C71.9924 47.8288 72.2309 46.5589 73.5005 44.1789C74.5336 42.1178 76.3954 39.4607 78.3406 37.7925C79.9649 36.3253 81.0767 36.128 81.5129 36.128H81.5541Z" fill="white"/>
<path d="M100.237 26.7668C100.674 26.7668 101.072 26.8452 101.349 27.0841C101.626 27.36 101.626 27.7969 101.307 28.2735C101.031 28.6702 100.594 28.9881 100.118 28.9881C96.8246 28.9462 94.2085 31.9613 92.7007 37.2774C92.6224 37.6352 92.7007 37.6757 92.9771 37.6352C96.0331 37.3585 97.6986 36.9605 99.3668 36.4856C100.237 36.2065 100.118 36.8018 99.5236 37.1977C97.3807 38.5085 93.1372 39.3808 92.424 39.4976C92.0663 39.5798 92.0254 39.7365 91.9092 40.1324C91.7082 40.9679 90.6785 44.5368 90.2819 46.1229C88.8147 51.9944 87.6238 55.3268 86.4745 57.9439C85.4036 60.3649 83.7353 63.2996 81.2756 64.132C80.959 64.2519 80.6033 64.2925 80.2861 64.2925C79.9692 64.2925 79.7297 64.2519 79.532 64.0938C79.2935 63.8148 79.3344 63.3783 79.7685 62.8229C80.4057 61.951 80.7607 61.7135 81.1969 61.5935C83.4587 60.8807 84.6873 59.2936 86.4333 53.4234C87.0275 51.5576 88.8532 44.2195 89.7254 40.0946C89.8048 39.698 89.6852 39.6578 89.4082 39.6578C88.416 39.5798 88.0606 39.1034 88.0606 38.8257C88.0606 38.5869 88.2971 38.2697 88.6136 38.1102C88.9721 37.9115 89.4491 37.8332 90.0842 37.7926C90.2819 37.7926 90.3606 37.6758 90.4795 37.3585C91.7903 33.5106 93.4551 30.8117 95.8733 28.9083C97.6199 27.5202 99.2466 26.7668 100.199 26.7668H100.237Z" fill="white"/>
<path d="M100.95 34.3427C100.95 34.1825 101.069 33.9852 101.386 33.6677C102.181 32.9143 103.371 31.7643 105.194 29.5431C105.592 29.0282 105.909 28.7485 106.346 28.7485C106.783 28.7485 107.138 28.988 107.418 29.3455C107.735 29.7002 107.617 30.0995 107.217 30.4535C104.164 33.3906 102.219 34.3427 101.704 34.5001C101.307 34.6204 100.95 34.6203 100.95 34.3812V34.3427ZM99.5619 42.8726C101.505 42.8726 103.331 41.3226 103.331 39.7365C103.331 38.7848 102.774 38.2696 102.26 38.2696C101.267 38.2696 99.6805 40.9679 99.0454 42.4726C98.9272 42.7523 99.0076 42.8726 99.5234 42.8726H99.5619ZM95.5972 46.9171C95.5972 45.409 96.6272 42.5138 98.1738 40.0165C98.8082 39.0233 101.031 36.0477 102.458 36.0477C103.014 36.0477 103.291 36.4034 103.331 36.7615C103.331 36.8815 103.45 37.0385 103.767 37.1196C104.679 37.1575 105.395 37.8331 105.395 39.0233C105.395 40.2517 104.839 41.5618 104.084 42.3945C103.014 43.584 101.546 44.6556 99.5234 44.6556C99.1657 44.6556 98.8484 44.4962 98.611 44.2979C98.4518 44.1789 98.3707 44.179 98.2542 44.4587C98.0542 44.8948 97.7772 45.9255 97.7772 46.639C97.7772 47.9079 98.4518 48.5042 99.5234 48.5042C101.349 48.5042 103.888 47.1154 105.711 45.331C105.988 45.0516 106.384 45.0138 106.582 45.1337C106.664 45.4509 106.503 45.8468 106.108 46.4022C104.76 48.0671 101.465 50.4863 98.5305 50.4863C97.1018 50.4863 95.5972 49.217 95.5972 46.9549V46.9171Z" fill="white"/>
<path d="M194.484 36.6835C194.484 38.3109 192.463 40.4118 191.192 41.2037C189.923 41.9577 188.255 42.7523 186.788 43.2259C186.512 43.3087 186.232 43.3462 185.994 43.3462C185.718 43.3462 185.161 43.2259 185.161 42.9506C185.161 42.7898 185.24 42.5138 185.478 42.2756C185.837 41.9196 186.669 41.4429 187.542 41.0067C189.488 40.0166 192.264 38.9831 192.264 36.5643C192.264 34.4616 189.882 33.7866 188.415 33.7464C187.979 33.7464 187.781 33.866 187.62 34.2244C187.304 34.8582 186.867 36.0477 185.796 38.9041C185.083 40.9267 183.813 44.2979 182.94 47.433C182.743 48.0262 182.94 48.187 183.455 48.3434C184.09 48.5451 185.44 48.5829 186.232 48.6617C186.829 48.7019 186.829 49.0593 186.311 49.3765C185.837 49.7731 184.724 50.091 183.178 50.091C182.622 50.091 182.265 50.1691 182.03 50.3663C181.831 50.5265 181.473 50.7657 180.995 50.7657C180.162 50.7657 179.449 50.2478 179.133 49.6542C178.854 49.138 179.055 48.7421 180.125 48.3843C180.482 48.2654 180.719 47.9884 180.916 47.3928C181.91 44.2195 183.694 39.1034 185.123 34.6606C185.24 34.2244 185.161 34.1444 184.844 34.3427C183.418 35.1754 182.821 35.5335 182.582 35.5335C182.305 35.5335 182.03 35.4146 181.869 35.1754C181.67 34.9366 181.67 34.5819 182.149 34.1825C183.138 33.3907 184.131 32.9143 185.359 32.4393C185.638 32.3204 185.759 32.241 185.837 32.041C186.034 31.6035 186.472 30.8116 186.945 30.8116C187.304 30.8116 187.699 31.1292 188.137 31.8045C188.296 32.0029 188.334 32.041 188.733 32.041C190.159 32.041 192.817 33.0326 193.73 34.2643C194.403 35.1345 194.484 35.9288 194.484 36.6426V36.6835Z" fill="white"/>
<path d="M205.708 48.1869C207.258 48.1869 211.42 44.3397 213.998 41.5617C214.317 41.2445 214.555 41.2847 214.595 41.6397C214.633 41.9576 214.476 42.4725 214.04 42.9907C211.023 46.7981 208.128 48.8207 206.781 49.6129C205.551 50.2879 204.717 50.4484 204.241 50.4484C203.328 50.4484 202.614 49.3369 203.171 46.639C203.368 45.3309 203.806 43.9421 204.003 43.2677C204.122 42.8306 203.963 42.7522 203.646 43.1478C201.506 46.0447 198.45 48.6231 196.664 49.7321C195.91 50.169 195.474 50.3294 194.96 50.3294C194.403 50.3294 193.768 49.3369 193.768 48.067C193.768 47.4731 193.928 46.243 195.038 43.3461C195.99 40.5691 197.459 37.7141 198.053 36.8402C198.292 36.4033 198.569 36.2064 198.885 36.2064C199.482 36.2064 200.077 36.7212 200.077 37.3966C200.077 37.9114 199.165 39.4192 198.846 39.8567C198.529 40.2516 198.21 40.6509 197.974 41.1256C197.657 41.76 197.22 42.8306 196.546 44.9322C195.871 46.7579 196.15 47.5116 196.743 47.5116C197.777 47.5116 199.046 46.1636 201.466 43.4654C203.408 41.2036 205.154 38.3895 205.868 37.2773C206.503 36.2466 206.821 36.0081 207.137 36.0081C207.691 36.0081 208.367 36.8401 208.09 37.5155C207.97 37.9114 207.81 38.2286 207.535 38.7847C206.383 41.1256 205.63 43.942 205.235 45.8467C204.835 47.671 205.154 48.1869 205.668 48.1869H205.708Z" fill="white"/>
<path d="M213.644 47.3136C213.644 48.1082 213.999 48.3058 214.436 48.3058C215.032 48.3058 216.101 47.791 217.411 46.7981C219.949 44.8539 222.17 40.4904 222.17 39.2215C222.17 38.6655 221.894 38.1503 221.259 38.1503C220.624 38.1503 219.195 38.7847 217.888 39.9756C216.5 41.1658 215.506 42.2755 214.674 43.8228C214.239 44.615 213.683 45.9255 213.644 47.2727V47.3136ZM222.449 36.0861C223.717 36.0861 224.312 37.754 224.312 38.5084C224.312 40.4117 223.241 42.3157 222.131 44.0218C220.743 46.0849 218.324 48.3058 216.895 49.1781C215.705 49.9301 214.119 50.4484 213.405 50.4484C212.69 50.4484 211.937 49.6129 211.937 49.0977C211.897 48.7018 211.819 48.3842 211.659 48.1869C211.421 47.9079 211.421 47.6308 211.501 47.2349C211.58 46.6008 213.245 40.6894 214.436 37.6756C215.548 34.8581 216.657 31.8832 217.292 30.495C217.689 29.5812 217.888 28.8298 217.966 28.114C218.008 27.6771 218.205 27.3599 218.56 27.042C218.878 26.7251 219.475 26.2886 219.949 26.2886C220.545 26.2886 220.702 27.042 220.386 28.0751C220.187 28.789 219.314 30.7332 218.008 33.8281C217.134 35.8885 215.865 39.1813 215.705 39.6979C215.506 40.2516 215.666 40.2516 216.063 39.8148C216.459 39.4607 218.284 37.7925 219.355 37.1574C220.426 36.5236 221.695 36.0861 222.408 36.0861H222.449Z" fill="white"/>
</svg>
