<svg width="800" height="800" viewBox="0 0 800 800" fill="none" xmlns="http://www.w3.org/2000/svg">
<path d="M400 100C234.55 100 100 234.55 100 400C100 565.4 234.575 700 400 700C565.45 700 700 565.4 700 400C700 234.6 565.45 100 400 100ZM400 114.062C557.85 114.062 685.938 242.175 685.938 400C685.938 557.825 557.825 685.938 400 685.938C242.175 685.938 114.062 557.8 114.062 400C114.062 242.175 242.15 114.062 400 114.062ZM400 142.969C310.075 142.969 231.156 188.694 185.156 258.594C191.206 258.769 196.712 258.594 201.562 258.594C228.488 258.594 270.312 255.469 270.312 255.469C284.188 254.669 285.725 274.913 271.875 276.562C271.875 276.562 257.688 278.887 242.188 279.688L335.938 557.812L392.188 389.062L352.344 279.688C338.469 278.887 325 276.562 325 276.562C311.125 275.738 312.687 254.644 326.562 255.469C326.562 255.469 369.256 258.594 394.531 258.594C421.456 258.594 463.281 255.469 463.281 255.469C477.156 254.669 478.694 274.913 464.844 276.562C464.844 276.562 450.631 278.887 435.156 279.688L528.125 556.25L553.906 470.312C566.931 436.887 573.438 408.794 573.438 386.719C573.438 354.919 562.169 333.531 552.344 316.406C539.319 295.181 527.344 276.694 527.344 255.469C527.344 231.844 545.037 210.156 570.312 210.156C571.438 210.156 572.312 210.131 573.438 210.156C527.663 168.181 467 142.969 400 142.969ZM625.781 276.562C626.906 284.763 627.344 293.625 627.344 303.125C627.344 329.225 622.488 358.612 607.812 395.312L529.688 622.656C606.213 578.031 657.031 494.925 657.031 400C657.056 355.225 645.881 313.188 625.781 276.562ZM164.844 295.312C150.569 327.288 142.969 362.675 142.969 400C142.969 501.85 201.625 589.525 287.5 631.25L164.844 295.312ZM404.688 422.656L327.344 646.875C350.419 653.65 374.725 657.031 400 657.031C429.95 657.031 458.406 652.369 485.156 642.969C484.481 641.869 484.119 640.313 483.594 639.062L404.688 422.656Z" fill="#383A43"/>
</svg>
