<svg width="24" height="25" viewBox="0 0 24 25" fill="none" xmlns="http://www.w3.org/2000/svg">
<g clip-path="url(#clip0_30_546)">
<path d="M7.29546 0.661713H6.20456C5.60206 0.661713 5.11365 1.15013 5.11365 1.75263V5.02535C5.11365 5.62785 5.60206 6.11626 6.20456 6.11626H7.29546C7.89796 6.11626 8.38636 5.62785 8.38636 5.02535V1.75263C8.38636 1.15013 7.89796 0.661713 7.29546 0.661713Z" fill="#02B9FC"/>
<path d="M17.1137 0.661713H16.0228C15.4203 0.661713 14.9319 1.15013 14.9319 1.75263V5.02535C14.9319 5.62785 15.4203 6.11626 16.0228 6.11626H17.1137C17.7162 6.11626 18.2046 5.62785 18.2046 5.02535V1.75263C18.2046 1.15013 17.7162 0.661713 17.1137 0.661713Z" fill="#02B9FC"/>
<path d="M0.75 9.38902H22.5682V5.02535C22.5682 3.82037 21.5914 2.84354 20.3864 2.84354H2.93182C1.72684 2.84354 0.75 3.82037 0.75 5.02535V9.38902Z" fill="#02B9FC"/>
<path fill-rule="evenodd" clip-rule="evenodd" d="M2.93182 24.6617C1.72684 24.6617 0.75 23.6849 0.75 22.4799V9.38901H22.5682V22.4799C22.5682 23.6849 21.5914 24.6617 20.3864 24.6617H2.93182ZM8.53493 14.9922L11.2622 17.7195L16.1713 12.8104C16.7168 12.2649 17.8076 13.3559 17.2622 13.9013C17.1461 14.0174 16.8203 14.3561 16.3766 14.8174C14.7365 16.5223 11.486 19.9013 11.2622 19.9013C11.0489 19.9013 9.3126 18.0583 8.22884 16.9078C7.86839 16.5253 7.58011 16.2192 7.44403 16.0831C6.89879 15.5377 7.98954 14.4468 8.53493 14.9922Z" fill="url(#paint0_linear_30_546)"/>
</g>
<defs>
<linearGradient id="paint0_linear_30_546" x1="11.6591" y1="9.38901" x2="11.6591" y2="24.6617" gradientUnits="userSpaceOnUse">
<stop stop-color="#05D2FE"/>
<stop offset="1" stop-color="#02B9FC"/>
</linearGradient>
<clipPath id="clip0_30_546">
<rect width="24" height="24" fill="white" transform="translate(0 0.661713)"/>
</clipPath>
</defs>
</svg>
