<svg width="32" height="33" viewBox="0 0 32 33" fill="none" xmlns="http://www.w3.org/2000/svg">
<path fill-rule="evenodd" clip-rule="evenodd" d="M0.5 17.8246C0.5 16.7194 1.39358 15.7205 2.48214 15.5952L9 14.8447L15.5179 15.5952C16.6126 15.7212 17.5 16.7193 17.5 17.8246V21.3234H0.5V17.8246Z" fill="#E43535"/>
<path fill-rule="evenodd" clip-rule="evenodd" d="M6 12.4816C4.4949 11.0587 3.5 8.7542 3.5 6.82343C3.5 3.78586 5.96243 1.32343 9 1.32343C12.0376 1.32343 14.5 3.78586 14.5 6.82343C14.5 8.7542 13.5051 11.0587 12 12.4816V15.8234C12 15.8234 9.96629 16.5478 9 16.5478C8.03371 16.5478 6 15.8234 6 15.8234V12.4816Z" fill="#FFDD95"/>
<path d="M4.5 10.8234C5.32843 10.8234 6 10.1519 6 9.32343C6 8.495 5.32843 7.82343 4.5 7.82343C3.67157 7.82343 3 8.495 3 9.32343C3 10.1519 3.67157 10.8234 4.5 10.8234Z" fill="#FFDD95"/>
<path d="M13.5 10.8234C14.3284 10.8234 15 10.1519 15 9.32343C15 8.495 14.3284 7.82343 13.5 7.82343C12.6716 7.82343 12 8.495 12 9.32343C12 10.1519 12.6716 10.8234 13.5 10.8234Z" fill="#FFDD95"/>
<path fill-rule="evenodd" clip-rule="evenodd" d="M14.5 24.8246C14.5 23.7194 15.3936 22.7205 16.4821 22.5952L23 21.8447L29.5179 22.5952C30.6126 22.7212 31.5 23.7193 31.5 24.8246V28.3234H14.5V24.8246Z" fill="#BD7575"/>
<path fill-rule="evenodd" clip-rule="evenodd" d="M20 19.4816C18.4949 18.0587 17.5 15.7542 17.5 13.8234C17.5 10.7859 19.9624 8.32343 23 8.32343C26.0376 8.32343 28.5 10.7859 28.5 13.8234C28.5 15.7542 27.5051 18.0587 26 19.4816V22.8234C26 22.8234 23.9663 23.5478 23 23.5478C22.0337 23.5478 20 22.8234 20 22.8234V19.4816Z" fill="#FFDD95"/>
<path d="M18.5 17.8234C19.3284 17.8234 20 17.1519 20 16.3234C20 15.495 19.3284 14.8234 18.5 14.8234C17.6716 14.8234 17 15.495 17 16.3234C17 17.1519 17.6716 17.8234 18.5 17.8234Z" fill="#FFDD95"/>
<path d="M27.5 17.8234C28.3284 17.8234 29 17.1519 29 16.3234C29 15.495 28.3284 14.8234 27.5 14.8234C26.6716 14.8234 26 15.495 26 16.3234C26 17.1519 26.6716 17.8234 27.5 17.8234Z" fill="#FFDD95"/>
</svg>
