<svg width="32" height="32" viewBox="0 0 32 32" fill="none" xmlns="http://www.w3.org/2000/svg">
<path d="M15.8124 28.0812C16.0187 28.0937 16.2249 28.1 16.4374 28.1C16.6437 28.1 16.8562 28.0937 17.0624 28.0812L17.0312 27.4937C18.8499 27.4 20.5562 26.8875 22.0499 26.0562L20.7062 24.7125H14.8499L12.6812 26.8812C13.6812 27.225 14.7437 27.4375 15.8499 27.4937L15.8124 28.0812Z" fill="#69C9C9"/>
<path d="M14.2248 4.10626C14.6311 4.03126 15.0498 3.97501 15.4748 3.94376L15.5248 4.54376C15.8248 4.51876 16.1311 4.50626 16.4373 4.50626C17.0311 4.50626 17.6248 4.55001 18.1998 4.64376L18.1748 10.8313L15.5186 13.3938V9.18751L11.4248 5.65626C12.3311 5.21876 13.3123 4.89376 14.3436 4.70001L14.2248 4.10626Z" fill="#69C9C9"/>
<path d="M31.225 9.125C30.6062 7.275 28.2375 6.23125 24.5437 6.18125C22.3125 4.34375 19.4687 3.2625 16.4375 3.2625C16.1 3.2625 15.7625 3.275 15.425 3.3L15.525 4.54375C15.825 4.51875 16.1312 4.50625 16.4375 4.50625C17.0312 4.50625 17.625 4.55 18.2 4.64375L18.175 10.8312L15.5187 13.3937V9.1875L11.425 5.65625C12.3312 5.21875 13.3125 4.89375 14.3437 4.7L14.1187 3.46875C9.03125 4.40625 5.11875 8.29375 4.0125 13.175C1.33125 15.3437 0.187498 17.5 0.774998 19.2625C1.25 20.6875 2.79375 21.6437 5.1875 22.025C7.23125 25.8437 11.1625 28.5062 15.775 28.7375L15.8375 27.4875C14.7312 27.4312 13.6687 27.2187 12.6687 26.875L14.8375 24.7062H20.6937L22.0375 26.05C20.5437 26.8875 18.8375 27.4 17.0187 27.4875L17.0812 28.7375C23.8625 28.3937 29.175 22.8 29.175 16.0062C29.175 15.425 29.1375 14.8375 29.0562 14.2625C30.9625 12.425 31.725 10.6312 31.225 9.125ZM1.9625 18.8687C1.63125 17.8687 2.2625 16.5375 3.71875 15.1C3.7 15.4 3.6875 15.7 3.6875 16.0062C3.6875 17.6312 3.99375 19.1875 4.55 20.625C3.1375 20.275 2.23125 19.675 1.9625 18.8687ZM23.125 25.3625L21.2187 23.4562H14.325L11.4187 26.3625C9.49375 25.4312 7.86875 23.975 6.73125 22.1875C6.8 22.1937 6.86875 22.1937 6.9375 22.2C7.20625 22.2125 7.4875 22.2187 7.76875 22.2187C10.8 22.2187 14.4125 21.5687 18.05 20.3562C21.9562 19.0562 25.4437 17.2625 27.9125 15.2875C27.925 15.5312 27.9375 15.775 27.9375 16.0187C27.9312 19.8562 26.0437 23.275 23.125 25.3625ZM27.2625 14.1937C24.9062 16.1187 21.4937 17.8812 17.6562 19.1562C13.8187 20.4312 10.0312 21.0687 6.99375 20.9375C6.65625 20.925 6.325 20.9 6.01875 20.8687C5.33125 19.3875 4.94375 17.7375 4.94375 16C4.94375 11.9687 7.03125 8.35625 10.2625 6.29375L14.2625 9.75V16.3312L19.4187 11.3625L19.45 4.90625C22.0875 5.625 24.3812 7.2625 25.925 9.5L27.2 9.15625C26.825 8.56875 26.4 8.0125 25.9375 7.5C28.1937 7.73125 29.6937 8.45 30.05 9.5125C30.4375 10.725 29.425 12.4312 27.2625 14.1937Z" fill="#4D5152"/>
<path d="M26.5938 10.6187C26.7938 10.9875 26.9688 11.375 27.125 11.7687L28.3375 11.4437C28.1875 11.05 28.0125 10.6625 27.825 10.2875L26.5938 10.6187Z" fill="#4D5152"/>
</svg>
