<svg width="32" height="32" viewBox="0 0 32 32" fill="none" xmlns="http://www.w3.org/2000/svg">
<path d="M28 10.6667L23.2523 13.3043C20.6053 14.7748 19.2819 15.5101 17.8803 15.7984C16.6397 16.0535 15.3603 16.0535 14.1197 15.7984C12.7182 15.5101 11.3947 14.7748 8.74773 13.3043L4 10.6667M8.26667 25.3333H23.7333C25.2268 25.3333 25.9736 25.3333 26.544 25.0427C27.0457 24.7871 27.4537 24.3791 27.7093 23.8773C28 23.3069 28 22.5601 28 21.0667V10.9333C28 9.43986 28 8.69311 27.7093 8.12268C27.4537 7.62091 27.0457 7.21296 26.544 6.95731C25.9736 6.66666 25.2268 6.66666 23.7333 6.66666H8.26667C6.7732 6.66666 6.02645 6.66666 5.45603 6.95731C4.95425 7.21296 4.54631 7.62091 4.29065 8.12268C4 8.69311 4 9.43984 4 10.9333V21.0667C4 22.5601 4 23.3069 4.29065 23.8773C4.54631 24.3791 4.95425 24.7871 5.45603 25.0427C6.02645 25.3333 6.77319 25.3333 8.26667 25.3333Z" stroke="#4A4A4A" stroke-width="2.66667" stroke-linecap="round" stroke-linejoin="round"/>
</svg>
