<svg width="32" height="32" viewBox="0 0 32 32" fill="none" xmlns="http://www.w3.org/2000/svg">
<path d="M2.65796 8.1505H29.343C30.81 8.1505 32 10.0105 32 12.3045C32 14.5985 30.81 16.4595 29.342 16.4595H2.65796" fill="#F2F2F2"/>
<path d="M2.658 16.4595C4.12597 16.4595 5.316 14.5992 5.316 12.3045C5.316 10.0097 4.12597 8.14949 2.658 8.14949C1.19003 8.14949 0 10.0097 0 12.3045C0 14.5992 1.19003 16.4595 2.658 16.4595Z" fill="#B5B5B5"/>
<path d="M13.926 16.3985L10.157 22.6555L12.007 22.3495L12.788 23.8505L16.947 16.3985" fill="#CC3E52"/>
<path d="M19.5442 16.3985L23.3122 22.6555L21.4622 22.3495L20.6822 23.8505L16.5232 16.3985" fill="#CC3E52"/>
<path d="M17.4301 16.4595C18.8981 16.4595 20.0881 14.5995 20.0881 12.3045C20.0881 10.0095 18.8981 8.1505 17.4301 8.1505H14.5701C16.0381 8.1505 17.2281 10.0105 17.2281 12.3055C17.2281 14.6005 16.0381 16.4605 14.5701 16.4605H17.4301V16.4595Z" fill="#E04F5F"/>
</svg>
