<svg width="32" height="32" viewBox="0 0 32 32" fill="none" xmlns="http://www.w3.org/2000/svg">
<path fill-rule="evenodd" clip-rule="evenodd" d="M16.3728 4.95437C16.1293 4.88347 15.8707 4.88347 15.6271 4.95437C15.5571 4.97479 15.4339 5.02585 15.1719 5.22421C14.8964 5.43283 14.5591 5.73139 14.0335 6.1986L7.04725 12.4085C6.19078 13.1698 5.94798 13.3995 5.77918 13.6533C5.61681 13.8976 5.49585 14.1669 5.42117 14.4505C5.34353 14.7455 5.33326 15.0793 5.33326 16.2253V22.8933C5.33326 24.0547 5.33434 24.8441 5.38498 25.454C5.4343 26.048 5.52366 26.3512 5.6335 26.5625C5.8865 27.0496 6.28362 27.4468 6.77067 27.6997C6.9821 27.8096 7.28529 27.8989 7.87921 27.9483C8.48907 27.9989 9.27857 28 10.4399 28H10.6666V24C10.6666 21.0545 13.0544 18.6667 16 18.6667C18.9455 18.6667 21.3333 21.0545 21.3333 24V28H21.56C22.7213 28 23.5108 27.9989 24.1207 27.9483C24.7145 27.8989 25.0177 27.8096 25.2292 27.6997C25.7163 27.4468 26.1133 27.0496 26.3664 26.5625C26.4763 26.3512 26.5656 26.048 26.6149 25.454C26.6655 24.8441 26.6667 24.0547 26.6667 22.8933V16.2253C26.6667 15.0793 26.6564 14.7455 26.5787 14.4505C26.504 14.1669 26.3831 13.8976 26.2207 13.6533C26.0519 13.3995 25.8091 13.1698 24.9527 12.4085L17.9664 6.1986C17.4408 5.73139 17.1035 5.43283 16.828 5.22421C16.566 5.02585 16.4428 4.97479 16.3728 4.95437ZM14.8815 2.39407C15.612 2.18135 16.3879 2.18135 17.1184 2.39407C17.6252 2.54168 18.0455 2.80125 18.4376 3.09816C18.8069 3.37779 19.2229 3.74751 19.7019 4.17325L26.7243 10.4154C26.7621 10.449 26.7993 10.4822 26.8363 10.5149C27.5319 11.1325 28.0572 11.5991 28.4415 12.177C28.7661 12.6655 29.0081 13.2043 29.1575 13.7716C29.3341 14.4427 29.3339 15.1453 29.3333 16.0755C29.3333 16.1248 29.3333 16.1747 29.3333 16.2253V22.9493C29.3333 24.0407 29.3333 24.9415 29.2724 25.6748C29.2092 26.4365 29.0733 27.1364 28.7328 27.7919C28.2268 28.766 27.4325 29.5601 26.4585 30.0661C25.8029 30.4067 25.1032 30.5425 24.3413 30.6057C23.608 30.6667 22.7073 30.6667 21.6159 30.6667H21.0733C21.0629 30.6667 21.0525 30.6667 21.0419 30.6667C20.8804 30.6667 20.6876 30.6668 20.5177 30.6527C20.3208 30.6364 20.0389 30.5944 19.7447 30.4415C19.3793 30.2517 19.0815 29.9539 18.8917 29.5887C18.7389 29.2943 18.6969 29.0124 18.6805 28.8155C18.6664 28.6457 18.6665 28.4528 18.6665 28.2913L18.6667 24C18.6667 22.5272 17.4727 21.3333 16 21.3333C14.5272 21.3333 13.3333 22.5272 13.3333 24L13.3333 28.2913C13.3333 28.4528 13.3335 28.6457 13.3193 28.8155C13.303 29.0124 13.261 29.2943 13.1081 29.5887C12.9183 29.9539 12.6205 30.2517 12.2552 30.4415C11.9609 30.5944 11.679 30.6364 11.4821 30.6527C11.3123 30.6668 11.1194 30.6667 10.958 30.6667C10.9474 30.6667 10.9369 30.6667 10.9266 30.6667H10.384C9.29258 30.6667 8.39185 30.6667 7.6585 30.6057C6.8967 30.5425 6.19691 30.4067 5.54139 30.0661C4.5673 29.5601 3.77306 28.766 3.26706 27.7919C2.92655 27.1364 2.79073 26.4365 2.72746 25.6748C2.66657 24.9415 2.66658 24.0407 2.66659 22.9493V16.2253C2.66659 16.1747 2.66657 16.1248 2.66655 16.0755C2.66606 15.1453 2.6657 14.4427 2.84239 13.7716C2.99177 13.2043 3.2337 12.6655 3.55845 12.177C3.94261 11.5991 4.46806 11.1325 5.16362 10.5149C5.20047 10.4822 5.23779 10.449 5.27561 10.4154L12.298 4.17327C12.777 3.74751 13.1929 3.37779 13.5623 3.09816C13.9544 2.80125 14.3747 2.54168 14.8815 2.39407Z" fill="#4A4A4A"/>
</svg>
