<svg width="24" height="25" viewBox="0 0 24 25" fill="none" xmlns="http://www.w3.org/2000/svg">
<g clip-path="url(#clip0_30_551)">
<path fill-rule="evenodd" clip-rule="evenodd" d="M18.8548 3.70603C16.8697 1.67649 14.4734 0.661713 11.6662 0.661713C8.85884 0.661713 6.46266 1.67649 4.47761 3.70603C2.49254 5.73558 1.5 8.18549 1.5 11.0557C1.5 13.9258 2.49254 16.3757 4.47761 18.4054L9.84923 23.8973C10.8461 24.9165 12.4862 24.9165 13.4831 23.8973L18.8548 18.4054C20.8398 16.3757 21.8323 13.9258 21.8323 11.0557C21.8323 8.18549 20.8398 5.73558 18.8548 3.70603ZM11.6662 14.9534C11.9165 14.9534 12.1644 14.9284 12.4099 14.8784C12.6554 14.8285 12.8938 14.7547 13.1251 14.6567C13.3563 14.5588 13.5761 14.4387 13.7842 14.2966C13.9923 14.1543 14.1848 13.9927 14.3618 13.8118C14.4501 13.7215 14.5339 13.627 14.6131 13.5284C14.6923 13.4297 14.7666 13.3273 14.836 13.2211C14.9054 13.115 14.9695 13.0056 15.0284 12.893C15.0872 12.7804 15.1404 12.6652 15.1883 12.5473C15.236 12.4293 15.278 12.3093 15.3143 12.1871C15.3506 12.0649 15.3809 11.9413 15.4053 11.8161C15.4296 11.6908 15.4479 11.5648 15.4601 11.4377C15.4724 11.3107 15.4784 11.1833 15.4784 11.0557C15.4784 10.928 15.4724 10.8007 15.4601 10.6736C15.4479 10.5466 15.4296 10.4205 15.4053 10.2952C15.3809 10.1701 15.3506 10.0464 15.3143 9.92421C15.278 9.80204 15.236 9.68204 15.1883 9.56406C15.1404 9.44609 15.0872 9.33089 15.0284 9.21831C14.9695 9.10574 14.9054 8.99631 14.836 8.89019C14.7666 8.78406 14.6923 8.68169 14.6131 8.58299C14.5339 8.48429 14.4501 8.38979 14.3618 8.29956C14.1848 8.11858 13.9923 7.957 13.7842 7.81482C13.5761 7.67263 13.3563 7.55257 13.1251 7.45464C12.8938 7.35669 12.6554 7.28276 12.4099 7.23282C12.1644 7.1829 11.9165 7.15794 11.6662 7.15794C11.4158 7.15794 11.168 7.1829 10.9224 7.23282C10.6769 7.28276 10.4385 7.35669 10.2073 7.45464C9.97598 7.55257 9.7563 7.67263 9.54818 7.81482C9.34005 7.957 9.14745 8.11858 8.97044 8.29956C8.88216 8.38979 8.79842 8.48429 8.7192 8.58299C8.63999 8.68169 8.56571 8.78406 8.49634 8.89019C8.42697 8.99631 8.36286 9.10574 8.304 9.21831C8.24514 9.33089 8.19182 9.44616 8.14404 9.56406C8.09626 9.68204 8.05424 9.80204 8.018 9.92421C7.98176 10.0464 7.95146 10.1701 7.9271 10.2952C7.90274 10.4205 7.88444 10.5466 7.87221 10.6736C7.85997 10.8007 7.85384 10.928 7.85384 11.0557C7.85384 11.1833 7.85997 11.3107 7.87221 11.4377C7.88444 11.5648 7.90274 11.6908 7.9271 11.8161C7.95146 11.9413 7.98176 12.0649 8.018 12.1871C8.05424 12.3093 8.09626 12.4294 8.14404 12.5473C8.19182 12.6652 8.24514 12.7804 8.304 12.893C8.36286 13.0056 8.42697 13.115 8.49634 13.2211C8.56571 13.3273 8.63999 13.4297 8.7192 13.5284C8.79842 13.627 8.88216 13.7215 8.97044 13.8118C9.14745 13.9927 9.34005 14.1543 9.54818 14.2966C9.7563 14.4387 9.97598 14.5588 10.2073 14.6567C10.4385 14.7547 10.6769 14.8285 10.9224 14.8784C11.168 14.9284 11.4158 14.9534 11.6662 14.9534Z" fill="url(#paint0_radial_30_551)"/>
</g>
<defs>
<radialGradient id="paint0_radial_30_551" cx="0" cy="0" r="1" gradientUnits="userSpaceOnUse" gradientTransform="translate(11.6662 0.661713) rotate(90) scale(24 20.3323)">
<stop stop-color="#A2E458"/>
<stop offset="1" stop-color="#5AD010"/>
</radialGradient>
<clipPath id="clip0_30_551">
<rect width="24" height="24" fill="white" transform="translate(0 0.661713)"/>
</clipPath>
</defs>
</svg>
