<svg width="32" height="33" viewBox="0 0 32 33" fill="none" xmlns="http://www.w3.org/2000/svg">
<g clip-path="url(#clip0_30_540)">
<path d="M31.2875 10.5504L16.8875 0.950375C16.35 0.592062 15.6501 0.592062 15.1124 0.950375L0.712438 10.5504C0.267438 10.8471 0 11.3468 0 11.8816V11.9176C0 12.4534 0.268375 12.9538 0.71475 13.2504L6.46313 17.0682L15.1147 22.8144C15.3829 22.9926 15.6914 23.0816 16 23.0816C16.3086 23.0816 16.6169 22.9926 16.8853 22.8144L31.2852 13.2503C31.7318 12.9537 32 12.4533 32 11.9174V11.8816C32 11.3468 31.7326 10.8471 31.2875 10.5504Z" fill="#E9A35F"/>
<path d="M31.2875 10.5501L16.8875 0.950146C16.6188 0.771022 16.3094 0.681396 16 0.681396V23.0814C16.3086 23.0814 16.6169 22.9923 16.8853 22.8142L31.2852 13.25C31.7317 12.9535 32 12.4531 32 11.9172V11.8814C32 11.3465 31.7326 10.8468 31.2875 10.5501Z" fill="#B66D38"/>
<path d="M31.1562 10.5073C30.6368 10.2286 30.0059 10.2582 29.5148 10.5845L29.4146 10.6511C29.4123 10.6524 29.4102 10.6539 29.4082 10.6553L27.9684 11.6116C27.9671 11.6124 27.966 11.6132 27.9648 11.614L16 19.5607L2.48525 10.5846C1.99425 10.2584 1.36363 10.2288 0.84375 10.5074C0.32425 10.7861 0 11.3279 0 11.9174V31.0814C0 31.9651 0.716375 32.6814 1.6 32.6814H30.4C31.2836 32.6814 32 31.9651 32 31.0814V11.9173C32 11.3278 31.6757 10.786 31.1562 10.5073Z" fill="#F4D371"/>
<path d="M31.1562 10.5073C30.6368 10.2286 30.0059 10.2582 29.5148 10.5845L29.4146 10.6511C29.4123 10.6524 29.4102 10.6539 29.4082 10.6553L27.9684 11.6116C27.9671 11.6124 27.966 11.6132 27.9648 11.614L16 19.5607V32.6814H30.4C31.2836 32.6814 32 31.9651 32 31.0814V11.9173C32 11.3278 31.6757 10.786 31.1562 10.5073Z" fill="#E9A35F"/>
</g>
<defs>
<clipPath id="clip0_30_540">
<rect width="32" height="32" fill="white" transform="translate(0 0.681396)"/>
</clipPath>
</defs>
</svg>
