<svg width="32" height="33" viewBox="0 0 32 33" fill="none" xmlns="http://www.w3.org/2000/svg">
<g clip-path="url(#clip0_30_482)">
<path fill-rule="evenodd" clip-rule="evenodd" d="M1.06665 8.19007L4.93332 1.39008H12.6666L16.5333 8.19007L12.6666 14.8567H4.93332L1.06665 8.19007Z" fill="#85A4E6"/>
<path fill-rule="evenodd" clip-rule="evenodd" d="M15.2 10.5901L11.3334 3.79011L12.6667 1.25677L16.5334 8.19011L15.2 10.5901Z" fill="#5C85DE"/>
<path fill-rule="evenodd" clip-rule="evenodd" d="M3.59998 12.7234H11.3333L14 8.19006L15.2 10.5901L12.6666 14.8567L4.93331 14.9901L3.59998 12.7234Z" fill="#3367D6"/>
<path fill-rule="evenodd" clip-rule="evenodd" d="M14.9333 16.1901L18.9333 9.39008H26.6667L30.5333 16.1901L26.6667 22.8567H18.9333L14.9333 16.1901Z" fill="#85A4E6"/>
<path fill-rule="evenodd" clip-rule="evenodd" d="M29.2 18.5901L25.3334 11.7901L26.6667 9.25677L30.5334 16.1901L29.2 18.5901Z" fill="#5C85DE"/>
<path fill-rule="evenodd" clip-rule="evenodd" d="M17.6 20.7234H25.3333L28 16.1901L29.2 18.5901L26.6666 22.8567L18.9333 22.9901L17.6 20.7234Z" fill="#3367D6"/>
<path fill-rule="evenodd" clip-rule="evenodd" d="M1.06665 24.1901L4.93332 17.3901H12.6666L16.5333 24.1901L12.6666 30.8567H4.93332L1.06665 24.1901Z" fill="#85A4E6"/>
<path fill-rule="evenodd" clip-rule="evenodd" d="M15.2 26.5901L11.3334 19.7901L12.6667 17.2568L16.5334 24.1901L15.2 26.5901Z" fill="#5C85DE"/>
<path fill-rule="evenodd" clip-rule="evenodd" d="M3.59998 28.7234H11.3333L14 24.1901L15.2 26.5901L12.6666 30.8567L4.93331 30.9901L3.59998 28.7234Z" fill="#3367D6"/>
</g>
<defs>
<clipPath id="clip0_30_482">
<rect width="32" height="32" fill="white" transform="translate(0 0.323425)"/>
</clipPath>
</defs>
</svg>
