<svg width="40" height="41" viewBox="0 0 40 41" fill="none" xmlns="http://www.w3.org/2000/svg">
<path fill-rule="evenodd" clip-rule="evenodd" d="M28.3101 16.9603C27.5791 16.9603 26.9482 16.9603 26.4261 16.9959C25.8764 17.0334 25.3266 17.1159 24.7834 17.3409C23.5582 17.8484 22.5849 18.8218 22.0774 20.0469C21.8524 20.5901 21.7699 21.1399 21.7324 21.6896C21.6507 22.8858 21.6967 24.0953 21.6967 25.2936C21.6967 28.0551 23.9354 30.2936 26.6967 30.2936H28.3634V30.7051C28.3634 33.2681 31.4622 34.5518 33.2747 32.7394C33.6562 32.3578 34.0376 31.9758 34.4197 31.5946C35.2209 30.7959 35.9321 30.0871 36.3162 29.1596C36.7002 28.2323 36.6987 27.2283 36.6971 26.0969C36.6947 24.5871 36.7709 23.0566 36.6179 21.5531C36.5344 20.7311 36.3484 19.9223 35.8541 19.1824C35.4892 18.6364 35.0206 18.1678 34.4746 17.8029C33.7347 17.3086 32.9259 17.1228 32.1039 17.0391C30.8467 16.9112 29.5724 16.9603 28.3101 16.9603Z" fill="#b8c2f6"/>
<path fill-rule="evenodd" clip-rule="evenodd" d="M9.95954 6.99938C9.22845 6.99936 8.59764 6.99935 8.07554 7.03496C7.52584 7.07246 6.97599 7.15498 6.43277 7.37998C5.20762 7.88745 4.23425 8.86083 3.72679 10.086C3.50177 10.6292 3.41927 11.179 3.38177 11.7287C3.30015 12.9249 3.34619 14.1343 3.34619 15.3327C3.34619 18.0941 5.58475 20.3328 8.34619 20.3328H10.0129V20.7441C10.0129 23.3073 13.1117 24.5908 14.9241 22.7784C15.3057 22.3968 15.687 22.0148 16.0692 21.6338C16.8705 20.8349 17.5815 20.1261 17.9656 19.1988C18.3496 18.2714 18.3481 17.2673 18.3465 16.136C18.3441 14.6262 18.4203 13.0957 18.2675 11.5922C18.1838 10.7702 17.998 9.9614 17.5035 9.22153C17.1388 8.67558 16.67 8.20683 16.124 7.84203C15.3842 7.34766 14.5754 7.16178 13.7533 7.07816C12.4962 6.95026 11.2219 6.99938 9.95954 6.99938Z" fill="#b8c2f6"/>
</svg>
