<svg width="19" height="19" viewBox="0 0 19 19" fill="none" xmlns="http://www.w3.org/2000/svg">
<path d="M12.7822 1.82733C16.1107 0.296836 17.775 -0.468404 18.5709 0.327596C19.3669 1.12359 18.6017 2.78782 17.0712 6.11628L16.2176 7.97261C15.912 8.63731 15.7592 8.96961 15.7592 9.32351C15.7592 9.67751 15.912 10.0098 16.2176 10.6745L17.0712 12.5308C18.6017 15.8593 19.3669 17.5235 18.5709 18.3195C17.775 19.1155 16.1107 18.3502 12.7822 16.8198L10.926 15.9662C10.2612 15.6606 9.92895 15.5077 9.57505 15.5077C9.22105 15.5077 8.88875 15.6606 8.22405 15.9662L6.36775 16.8198C3.03929 18.3502 1.37506 19.1155 0.579061 18.3195C-0.216939 17.5235 0.548301 15.8593 2.07879 12.5308L2.93236 10.6745C3.23799 10.0098 3.39081 9.67751 3.39081 9.32351C3.39081 8.96961 3.23799 8.63731 2.93236 7.97261L2.07879 6.11628C0.548301 2.78782 -0.216939 1.12359 0.579061 0.327596C1.37506 -0.468404 3.03929 0.296836 6.36775 1.82733L8.22405 2.6809C8.88875 2.98653 9.22105 3.13935 9.57505 3.13935C9.92895 3.13935 10.2612 2.98653 10.926 2.6809L12.7822 1.82733Z" fill="#516CF7"/>
</svg>
