<svg width="32" height="33" viewBox="0 0 32 33" fill="none" xmlns="http://www.w3.org/2000/svg">
<g clip-path="url(#clip0_30_525)">
<path d="M16.5628 8.01038L19.3613 13.0711L25.0385 14.1683L21.0909 18.3938L21.8016 24.1328L16.5628 21.6832L11.3238 24.1328L12.0347 18.3938L8.08716 14.1683L13.7645 13.0711L16.5628 8.01038Z" fill="#FFE98F"/>
<path d="M16.5627 8.01038L19.3612 13.0711L25.0384 14.1683L21.0908 18.3938L21.8015 24.1328L16.5627 21.6832V8.01038Z" fill="#FFDA44"/>
<path d="M7.87972 0.956909L9.27897 3.48722L12.1176 4.03585L10.1437 6.1486L10.4991 9.0181L7.87972 7.79328L5.26022 9.0181L5.61566 6.1486L3.64185 4.03585L6.48047 3.48722L7.87972 0.956909Z" fill="#FFE98F"/>
<path d="M7.87988 0.956909L9.27913 3.48722L12.1178 4.03585L10.1439 6.1486L10.4993 9.0181L7.87988 7.79328V0.956909Z" fill="#FFDA44"/>
<path d="M23.5704 2.56689L24.6901 4.59189L26.9618 5.03089L25.3823 6.72171L25.6666 9.01808L23.5704 8.03796L21.4741 9.01808L21.7585 6.72171L20.179 5.03089L22.4507 4.59189L23.5704 2.56689Z" fill="#FFE98F"/>
<path d="M8.70034 25.1404L9.82009 27.1653L12.0918 27.6044L10.5122 29.2952L10.7966 31.5914L8.70034 30.6114L6.60403 31.5914L6.8884 29.2952L5.30884 27.6044L7.58059 27.1653L8.70034 25.1404Z" fill="#FFE98F"/>
<path d="M23.5703 2.56689L24.69 4.59189L26.9617 5.03089L25.3822 6.72171L25.6665 9.01808L23.5703 8.03796V2.56689Z" fill="#FFDA44"/>
<path d="M8.7002 25.1404L9.81995 27.1653L12.0917 27.6044L10.5121 29.2952L10.7964 31.5914L8.7002 30.6114V25.1404Z" fill="#FFDA44"/>
<path d="M29.6162 17.0792L30.4032 18.5025L32 18.811L30.8897 19.9996L31.0895 21.6136L29.6162 20.9247L28.1427 21.6136L28.3426 19.9996L27.2324 18.811L28.8291 18.5025L29.6162 17.0792Z" fill="#FFDA44"/>
<path d="M20.818 27.1558L21.605 28.579L23.2018 28.8876L22.0915 30.0761L22.2913 31.6901L20.818 31.0012L19.3445 31.6901L19.5444 30.0761L18.4341 28.8876L20.0309 28.579L20.818 27.1558Z" fill="#FFDA44"/>
<path d="M2.9135 14.0563L3.87544 15.7958L5.827 16.1729L4.47 17.6255L4.71431 19.5983L2.9135 18.7562L1.11263 19.5983L1.357 17.6255L0 16.1729L1.95162 15.7958L2.9135 14.0563Z" fill="#FFDA44"/>
</g>
<defs>
<clipPath id="clip0_30_525">
<rect width="32" height="32" fill="white" transform="translate(0 0.323486)"/>
</clipPath>
</defs>
</svg>
