<svg width="32" height="33" viewBox="0 0 32 33" fill="none" xmlns="http://www.w3.org/2000/svg">
<g clip-path="url(#clip0_30_496)">
<path d="M23.1803 20.7778L11.6788 9.27644C11.4836 9.08119 11.1671 9.08119 10.9718 9.27644L9.08626 11.1619C8.99244 11.2556 8.93982 11.3828 8.93982 11.5154C8.93982 11.6479 8.99251 11.7752 9.08626 11.8689L20.5877 23.3704C20.6815 23.4642 20.8087 23.5168 20.9412 23.5168C21.0738 23.5168 21.201 23.4642 21.2947 23.3704L23.1802 21.4848C23.3755 21.2897 23.3755 20.9731 23.1803 20.7778Z" fill="#CDD4D5"/>
<path d="M13.3758 4.93986L9.03918 0.603225C8.84393 0.407975 8.52736 0.407975 8.33211 0.603225L6.44674 2.48867C6.25149 2.68392 6.25149 3.00048 6.44674 3.19567L9.67562 6.42455L6.23461 9.86556L3.00567 6.6368C2.81042 6.44155 2.49385 6.44155 2.29867 6.6368L0.413161 8.52224C0.217911 8.71749 0.217911 9.03405 0.413161 9.22924L4.74979 13.5659C4.84398 13.6601 4.9713 13.7123 5.1033 13.7123C5.11836 13.7123 5.13348 13.7116 5.14861 13.7103L9.29674 13.3331C9.41318 13.3225 9.52224 13.2714 9.60499 13.1887L12.9989 9.79487C13.0816 9.71212 13.1327 9.60306 13.1432 9.48662L13.5204 5.33848C13.5337 5.1908 13.4807 5.04467 13.3758 4.93986Z" fill="#CDD4D5"/>
<path d="M10.4483 5.10706C10.3204 5.10706 10.1924 5.05824 10.0948 4.96062L8.76155 3.62736C8.5663 3.43211 8.5663 3.11555 8.76155 2.92036C8.9568 2.72511 9.27336 2.72511 9.46855 2.92036L10.8018 4.25362C10.9971 4.44887 10.9971 4.76543 10.8018 4.96062C10.7042 5.05824 10.5762 5.10706 10.4483 5.10706Z" fill="white"/>
<path d="M31.8536 23.4176L27.517 19.081C27.412 18.9761 27.2659 18.9232 27.1182 18.9366L22.9701 19.3138C22.8536 19.3244 22.7446 19.3754 22.6618 19.4581L19.2679 22.852C19.1852 22.9348 19.1341 23.0438 19.1236 23.1603L18.7464 27.3084C18.733 27.4562 18.7859 27.6023 18.8908 27.7071L23.2275 32.0438C23.325 32.1413 23.453 32.1902 23.581 32.1902C23.7089 32.1902 23.8369 32.1414 23.9345 32.0438L25.8199 30.1583C26.0151 29.9631 26.0151 29.6465 25.8199 29.4513L22.591 26.2225L26.032 22.7814L29.2609 26.0103C29.4562 26.2056 29.7727 26.2056 29.9679 26.0103L31.8533 24.1249C32.0488 23.9294 32.0488 23.6128 31.8536 23.4176Z" fill="#CDD4D5"/>
<path d="M10.0613 10.187L9.08626 11.162C8.99244 11.2557 8.93982 11.3829 8.93982 11.5155C8.93982 11.648 8.99251 11.7753 9.08626 11.869L20.5878 23.3705C20.6815 23.4643 20.8087 23.5169 20.9413 23.5169C21.0738 23.5169 21.2011 23.4642 21.2948 23.3705L22.2697 22.3955L10.0613 10.187Z" fill="#687F82"/>
<path d="M7.9873 8.11292L6.23455 9.86568L3.00567 6.63679C2.81042 6.44154 2.49385 6.44154 2.29867 6.63679L0.413161 8.52223C0.217911 8.71749 0.217911 9.03405 0.413161 9.22924L4.7498 13.5659C4.84398 13.6601 4.9713 13.7123 5.1033 13.7123C5.11836 13.7123 5.13348 13.7116 5.14861 13.7102L9.29674 13.3331C9.41318 13.3225 9.52224 13.2714 9.60499 13.1887L11.3341 11.4596L7.9873 8.11292Z" fill="#9BAAAB"/>
<path d="M19.2679 22.852C19.1852 22.9347 19.1341 23.0438 19.1236 23.1602L18.7464 27.3084C18.733 27.4562 18.7859 27.6023 18.8908 27.7071L23.2275 32.0438C23.325 32.1413 23.453 32.1902 23.581 32.1902C23.7089 32.1902 23.8369 32.1414 23.9345 32.0438L25.8199 30.1583C26.0151 29.9631 26.0151 29.6465 25.8199 29.4513L22.591 26.2224L24.3438 24.4696L20.9971 21.1229L19.2679 22.852Z" fill="#9BAAAB"/>
<path d="M22.7252 9.41464L21.2168 7.9062C21.0216 7.71095 20.705 7.71095 20.5098 7.9062L10.5167 17.8993C10.3214 18.0945 10.3214 18.4111 10.5167 18.6063L12.0251 20.1147C12.1226 20.2123 12.2506 20.2612 12.3786 20.2612C12.5066 20.2612 12.6345 20.2124 12.7321 20.1147L22.7251 10.1216C22.9205 9.92639 22.9205 9.60983 22.7252 9.41464Z" fill="#CDD4D5"/>
<path d="M28.9473 3.19251L27.4389 1.68407C27.2915 1.53669 27.0683 1.49613 26.8784 1.5825L22.7303 3.46807C22.6757 3.49288 22.6261 3.52726 22.5837 3.56963L19.3785 6.77495C19.1832 6.9702 19.1832 7.28677 19.3785 7.48195L23.1494 11.2529C23.247 11.3506 23.375 11.3993 23.5029 11.3993C23.6309 11.3993 23.7589 11.3505 23.8564 11.2529L27.0618 8.04758C27.1041 8.0052 27.1386 7.95552 27.1633 7.90095L29.0488 3.75282C29.1351 3.56313 29.0947 3.33982 28.9473 3.19251Z" fill="#CDD4D5"/>
<path d="M12.5435 22.9901L7.6412 18.0878C7.44595 17.8926 7.12939 17.8926 6.9342 18.0878L1.08919 23.9329C0.893936 24.1281 0.893936 24.4447 1.08919 24.6399L5.99145 29.5422C6.08901 29.6397 6.21701 29.6886 6.34495 29.6886C6.47288 29.6886 6.60088 29.6398 6.69845 29.5422L12.5435 23.6972C12.7387 23.5019 12.7387 23.1854 12.5435 22.9901Z" fill="#FD6A33"/>
<path d="M7.6412 18.0878C7.44595 17.8926 7.12939 17.8926 6.9342 18.0878L1.08919 23.9329C0.893936 24.1281 0.893936 24.4447 1.08919 24.6399L3.51969 27.0705L10.0718 20.5184L7.6412 18.0878Z" fill="#FF8C29"/>
<path d="M3.1865 26.7375L3.89355 27.4446L10.4455 20.8926L9.73845 20.1856L3.1865 26.7375Z" fill="#365558"/>
<path d="M4.69529 27.8689L5.40234 28.5759L11.7657 22.2125L11.0587 21.5055L4.69529 27.8689Z" fill="#365558"/>
<path d="M2.05552 25.2295L2.76257 25.9365L9.12596 19.5731L8.4189 18.8661L2.05552 25.2295Z" fill="#687F82"/>
<path d="M3.5197 27.07L10.0717 20.5181L9.73888 20.1853L3.18692 26.7372L3.5197 27.07Z" fill="#687F82"/>
<path d="M21.9504 8.63989L11.2502 19.34L12.025 20.1147C12.1226 20.2123 12.2506 20.2612 12.3785 20.2612C12.5065 20.2612 12.6344 20.2124 12.732 20.1147L22.7251 10.1216C22.9204 9.9264 22.9204 9.60983 22.7251 9.41464L21.9504 8.63989Z" fill="#687F82"/>
<path d="M28.1724 2.41772L21.2433 9.34693L23.1494 11.253C23.2469 11.3507 23.3749 11.3994 23.5029 11.3994C23.6308 11.3994 23.7588 11.3506 23.8564 11.253L27.0617 8.04767C27.104 8.0053 27.1385 7.95561 27.1632 7.90105L29.0487 3.75291C29.1349 3.56316 29.0945 3.33985 28.9471 3.19248L28.1724 2.41772Z" fill="#9BAAAB"/>
<path d="M4.64817 30.6315C4.73111 30.6315 4.81461 30.6108 4.8908 30.5685L6.58768 29.6258L1.00554 24.0437L0.0629132 25.7406C-0.045462 25.9358 -0.0113994 26.1791 0.146413 26.337L4.29455 30.485C4.39073 30.5813 4.51873 30.6315 4.64817 30.6315Z" fill="#FF8C29"/>
<path d="M1.00566 24.0437L0.0629132 25.7406C-0.045462 25.9358 -0.0113994 26.1791 0.146413 26.337L2.19986 28.3904L3.77611 26.8141L1.00566 24.0437Z" fill="#FFD1A9"/>
<path d="M10.2809 16.9566C10.1364 16.8121 9.91839 16.7701 9.73039 16.8506L7.0907 17.9819L12.6495 23.5407L13.7808 20.901C13.8613 20.713 13.8193 20.4951 13.6748 20.3505L10.2809 16.9566Z" fill="#FF8C29"/>
<path d="M10.2809 16.9566C10.1364 16.8121 9.91839 16.7701 9.73039 16.8506L7.0907 17.9819L9.84952 20.7407L11.9572 18.633L10.2809 16.9566Z" fill="#FFD1A9"/>
<path d="M22.0984 7.65847C21.9705 7.65847 21.8425 7.60966 21.7449 7.51203C21.5497 7.31678 21.5497 7.00022 21.7449 6.80503L23.3448 5.20515C23.5401 5.0099 23.8566 5.0099 24.0518 5.20515C24.2471 5.4004 24.2471 5.71697 24.0518 5.91215L22.4519 7.51203C22.3543 7.6096 22.2264 7.65847 22.0984 7.65847Z" fill="white"/>
</g>
<defs>
<clipPath id="clip0_30_496">
<rect width="32" height="32" fill="white" transform="translate(0 0.323486)"/>
</clipPath>
</defs>
</svg>
